<?xml version="1.0" encoding="UTF-8"?>
<svg id="Layer_2" data-name="Layer 2" xmlns="http://www.w3.org/2000/svg" viewBox="0 0 1545.91 633.53">
  <defs>
    <style>
      .cls-1 {
        fill: #172a53;
        stroke-width: 0px;
      }
    </style>
  </defs>
  <g id="Layer_1-2" data-name="Layer 1">
    <g>
      <rect class="cls-1" x="92.73" y="361.87" width="1362.68" height="10.77"/>
      <g>
        <path class="cls-1" d="M215.89,257.44h-101.09l-14.99,45.83H0L110.94,0h109.66l110.51,303.27h-100.23l-14.99-45.83ZM192.76,185.9l-27.41-84.38-27.41,84.38h54.83Z"/>
        <path class="cls-1" d="M717.06,0v303.27h-94.67v-151.21l-46.69,151.21h-81.39l-46.69-151.21v151.21h-95.09V0h116.51l66.82,182.05L600.97,0h116.08Z"/>
        <path class="cls-1" d="M954.36,257.44h-101.09l-14.99,45.83h-99.81L849.41,0h109.66l110.51,303.27h-100.23l-14.99-45.83ZM931.23,185.9l-27.41-84.38-27.41,84.38h54.83Z"/>
        <path class="cls-1" d="M1186.09,231.31h91.67v71.96h-186.76V0h95.09v231.31Z"/>
        <path class="cls-1" d="M1545.91,0v75.39h-80.53v227.88h-95.09V75.39h-79.67V0h255.3Z"/>
      </g>
      <g>
        <g>
          <path class="cls-1" d="M136.25,471.84h-31.47l-6.04,16.43h-7.32l25.23-68.28h7.82l25.13,68.28h-7.32l-6.04-16.43ZM134.18,466.11l-13.66-37.4-13.66,37.4h27.31Z"/>
          <path class="cls-1" d="M164.11,484.76c-3.93-2.87-6.12-6.78-6.58-11.73h7.13c.33,3.03,1.76,5.49,4.3,7.37,2.54,1.88,5.95,2.82,10.24,2.82,3.76,0,6.71-.89,8.86-2.67,2.14-1.78,3.22-3.99,3.22-6.63,0-1.85-.59-3.36-1.78-4.55-1.19-1.19-2.69-2.13-4.5-2.82-1.82-.69-4.27-1.43-7.37-2.23-4.02-1.05-7.29-2.11-9.8-3.17-2.51-1.05-4.64-2.62-6.38-4.7-1.75-2.08-2.62-4.86-2.62-8.36,0-2.64.79-5.08,2.38-7.32,1.58-2.24,3.83-4.02,6.73-5.34,2.9-1.32,6.2-1.98,9.9-1.98,5.8,0,10.49,1.47,14.05,4.4,3.56,2.94,5.47,6.98,5.74,12.12h-6.93c-.2-3.17-1.43-5.72-3.71-7.67-2.28-1.94-5.39-2.92-9.35-2.92-3.5,0-6.33.83-8.51,2.47-2.18,1.65-3.26,3.7-3.26,6.13,0,2.11.64,3.84,1.93,5.2,1.29,1.35,2.89,2.41,4.8,3.17,1.91.76,4.49,1.6,7.72,2.52,3.89,1.06,6.99,2.08,9.3,3.07,2.31.99,4.29,2.44,5.94,4.35,1.65,1.91,2.51,4.45,2.57,7.62,0,2.9-.79,5.49-2.38,7.77-1.58,2.28-3.79,4.07-6.63,5.39-2.84,1.32-6.1,1.98-9.8,1.98-6.2,0-11.26-1.43-15.19-4.3Z"/>
          <path class="cls-1" d="M221.1,485.65c-4.06-2.28-7.26-5.51-9.6-9.7-2.34-4.19-3.51-9.09-3.51-14.69s1.19-10.5,3.56-14.69c2.37-4.19,5.6-7.42,9.7-9.7,4.09-2.28,8.67-3.41,13.75-3.41s9.68,1.14,13.8,3.41c4.12,2.28,7.35,5.51,9.7,9.7,2.34,4.19,3.51,9.09,3.51,14.69s-1.19,10.42-3.56,14.64c-2.38,4.22-5.64,7.47-9.8,9.75-4.16,2.28-8.77,3.41-13.85,3.41s-9.65-1.14-13.7-3.41ZM244.7,480.6c3.03-1.62,5.49-4.06,7.37-7.32,1.88-3.27,2.82-7.27,2.82-12.02s-.92-8.76-2.77-12.02c-1.85-3.26-4.29-5.71-7.32-7.32-3.03-1.62-6.33-2.42-9.9-2.42s-6.86.81-9.89,2.42c-3.03,1.62-5.46,4.06-7.27,7.32-1.81,3.27-2.72,7.27-2.72,12.02s.91,8.76,2.72,12.02c1.81,3.26,4.22,5.71,7.22,7.32,3,1.62,6.28,2.42,9.85,2.42s6.86-.81,9.9-2.42Z"/>
          <path class="cls-1" d="M274.88,446.56c2.24-4.19,5.34-7.42,9.3-9.7,3.96-2.28,8.48-3.41,13.56-3.41,6.66,0,12.15,1.65,16.48,4.95,4.32,3.3,7.11,7.78,8.36,13.46h-7.42c-.92-3.89-2.92-6.94-5.99-9.15-3.07-2.21-6.88-3.32-11.43-3.32-3.63,0-6.89.83-9.8,2.47-2.9,1.65-5.2,4.11-6.88,7.37-1.68,3.27-2.52,7.27-2.52,12.02s.84,8.77,2.52,12.07c1.68,3.3,3.97,5.77,6.88,7.42,2.9,1.65,6.17,2.47,9.8,2.47,4.55,0,8.36-1.1,11.43-3.32,3.07-2.21,5.06-5.29,5.99-9.25h7.42c-1.25,5.54-4.06,9.99-8.41,13.36-4.35,3.36-9.83,5.05-16.43,5.05-5.08,0-9.6-1.14-13.56-3.41-3.96-2.28-7.06-5.51-9.3-9.7-2.24-4.19-3.36-9.09-3.36-14.69s1.12-10.5,3.36-14.69Z"/>
          <path class="cls-1" d="M335.24,422.57c-.99-.99-1.48-2.21-1.48-3.66s.49-2.65,1.48-3.61c.99-.96,2.18-1.43,3.56-1.43s2.57.48,3.56,1.43c.99.96,1.48,2.16,1.48,3.61s-.49,2.67-1.48,3.66c-.99.99-2.18,1.48-3.56,1.48s-2.57-.49-3.56-1.48ZM342.27,434.24v54.03h-6.93v-54.03h6.93Z"/>
          <path class="cls-1" d="M358.15,446.56c2.21-4.19,5.28-7.42,9.2-9.7,3.92-2.28,8.36-3.41,13.31-3.41s9.58,1.19,13.31,3.56c3.73,2.37,6.41,5.41,8.06,9.1v-11.87h6.93v54.03h-6.93v-11.97c-1.72,3.7-4.44,6.75-8.16,9.15-3.73,2.41-8.16,3.61-13.31,3.61s-9.29-1.15-13.21-3.46c-3.93-2.31-6.99-5.57-9.2-9.8-2.21-4.22-3.32-9.1-3.32-14.64s1.1-10.41,3.32-14.6ZM399.36,449.78c-1.78-3.3-4.2-5.84-7.27-7.62-3.07-1.78-6.45-2.67-10.14-2.67s-7.26.86-10.29,2.57c-3.03,1.72-5.43,4.21-7.17,7.47-1.75,3.27-2.62,7.14-2.62,11.63s.87,8.3,2.62,11.63c1.75,3.33,4.14,5.87,7.17,7.62,3.03,1.75,6.46,2.62,10.29,2.62s7.08-.89,10.14-2.67c3.07-1.78,5.49-4.32,7.27-7.62,1.78-3.3,2.67-7.13,2.67-11.48s-.89-8.18-2.67-11.48Z"/>
          <path class="cls-1" d="M433.8,440.08v33.55c0,3.3.63,5.57,1.88,6.83,1.25,1.25,3.46,1.88,6.63,1.88h6.33v5.94h-7.42c-4.88,0-8.51-1.14-10.89-3.41-2.38-2.28-3.56-6.02-3.56-11.23v-33.55h-7.52v-5.84h7.52v-13.56h7.03v13.56h14.84v5.84h-14.84ZM439.84,493.42c.53,2.11.79,4.32.79,6.63,0,3.69-.76,6.38-2.28,8.06-1.52,1.68-3.73,2.52-6.63,2.52v-3.46c3.03,0,4.55-1.85,4.55-5.54v-1.39h-4.26v-6.83h7.82Z"/>
          <path class="cls-1" d="M459.92,422.57c-.99-.99-1.48-2.21-1.48-3.66s.49-2.65,1.48-3.61c.99-.96,2.18-1.43,3.56-1.43s2.57.48,3.56,1.43c.99.96,1.48,2.16,1.48,3.61s-.49,2.67-1.48,3.66-2.18,1.48-3.56,1.48-2.57-.49-3.56-1.48ZM466.95,434.24v54.03h-6.93v-54.03h6.93Z"/>
          <path class="cls-1" d="M482.83,446.56c2.21-4.19,5.28-7.42,9.2-9.7,3.92-2.28,8.36-3.41,13.31-3.41s9.58,1.19,13.31,3.56c3.73,2.37,6.41,5.41,8.06,9.1v-11.87h6.93v54.03h-6.93v-11.97c-1.72,3.7-4.44,6.75-8.16,9.15-3.73,2.41-8.16,3.61-13.31,3.61s-9.29-1.15-13.21-3.46c-3.93-2.31-6.99-5.57-9.2-9.8-2.21-4.22-3.32-9.1-3.32-14.64s1.1-10.41,3.32-14.6ZM524.04,449.78c-1.78-3.3-4.2-5.84-7.27-7.62-3.07-1.78-6.45-2.67-10.14-2.67s-7.26.86-10.29,2.57c-3.03,1.72-5.43,4.21-7.17,7.47-1.75,3.27-2.62,7.14-2.62,11.63s.87,8.3,2.62,11.63c1.75,3.33,4.14,5.87,7.17,7.62,3.03,1.75,6.46,2.62,10.29,2.62s7.08-.89,10.14-2.67c3.07-1.78,5.49-4.32,7.27-7.62,1.78-3.3,2.67-7.13,2.67-11.48s-.89-8.18-2.67-11.48Z"/>
          <path class="cls-1" d="M644.17,419.99v68.28h-6.93v-54.52l-24.34,54.52h-5.05l-24.34-54.32v54.32h-6.93v-68.28h7.32l26.42,59.17,26.42-59.17h7.42Z"/>
          <path class="cls-1" d="M669.84,485.65c-4.06-2.28-7.26-5.51-9.6-9.7-2.34-4.19-3.51-9.09-3.51-14.69s1.19-10.5,3.56-14.69c2.37-4.19,5.6-7.42,9.7-9.7,4.09-2.28,8.67-3.41,13.75-3.41s9.68,1.14,13.8,3.41c4.12,2.28,7.35,5.51,9.7,9.7,2.34,4.19,3.51,9.09,3.51,14.69s-1.19,10.42-3.56,14.64c-2.38,4.22-5.64,7.47-9.8,9.75-4.16,2.28-8.77,3.41-13.85,3.41s-9.65-1.14-13.7-3.41ZM693.44,480.6c3.03-1.62,5.49-4.06,7.37-7.32,1.88-3.27,2.82-7.27,2.82-12.02s-.92-8.76-2.77-12.02c-1.85-3.26-4.29-5.71-7.32-7.32-3.03-1.62-6.33-2.42-9.9-2.42s-6.86.81-9.89,2.42c-3.03,1.62-5.46,4.06-7.27,7.32-1.81,3.27-2.72,7.27-2.72,12.02s.91,8.76,2.72,12.02c1.81,3.26,4.22,5.71,7.22,7.32,3,1.62,6.28,2.42,9.85,2.42s6.86-.81,9.9-2.42Z"/>
          <path class="cls-1" d="M730.35,415.05v73.22h-6.93v-73.22h6.93Z"/>
          <path class="cls-1" d="M746.28,446.56c2.24-4.19,5.33-7.42,9.25-9.7,3.92-2.28,8.36-3.41,13.31-3.41s9.04,1.16,12.86,3.46c3.83,2.31,6.63,5.31,8.41,9v-30.87h6.93v73.22h-6.93v-12.07c-1.65,3.76-4.35,6.84-8.11,9.25-3.76,2.41-8.18,3.61-13.26,3.61s-9.38-1.15-13.31-3.46c-3.93-2.31-6.99-5.57-9.2-9.8-2.21-4.22-3.32-9.1-3.32-14.64s1.12-10.41,3.36-14.6ZM787.45,449.78c-1.78-3.3-4.2-5.84-7.27-7.62-3.07-1.78-6.45-2.67-10.14-2.67s-7.26.86-10.29,2.57c-3.03,1.72-5.43,4.21-7.17,7.47-1.75,3.27-2.62,7.14-2.62,11.63s.87,8.3,2.62,11.63c1.75,3.33,4.14,5.87,7.17,7.62,3.03,1.75,6.46,2.62,10.29,2.62s7.08-.89,10.14-2.67c3.07-1.78,5.49-4.32,7.27-7.62,1.78-3.3,2.67-7.13,2.67-11.48s-.89-8.18-2.67-11.48Z"/>
          <path class="cls-1" d="M822.82,485.65c-4.06-2.28-7.26-5.51-9.6-9.7-2.34-4.19-3.51-9.09-3.51-14.69s1.19-10.5,3.56-14.69c2.37-4.19,5.6-7.42,9.7-9.7,4.09-2.28,8.67-3.41,13.75-3.41s9.68,1.14,13.8,3.41c4.12,2.28,7.35,5.51,9.7,9.7,2.34,4.19,3.51,9.09,3.51,14.69s-1.19,10.42-3.56,14.64c-2.38,4.22-5.64,7.47-9.8,9.75-4.16,2.28-8.77,3.41-13.85,3.41s-9.65-1.14-13.7-3.41ZM846.42,480.6c3.03-1.62,5.49-4.06,7.37-7.32,1.88-3.27,2.82-7.27,2.82-12.02s-.92-8.76-2.77-12.02c-1.85-3.26-4.29-5.71-7.32-7.32-3.03-1.62-6.33-2.42-9.9-2.42s-6.86.81-9.89,2.42c-3.03,1.62-5.46,4.06-7.27,7.32-1.81,3.27-2.72,7.27-2.72,12.02s.91,8.76,2.72,12.02c1.81,3.26,4.22,5.71,7.22,7.32,3,1.62,6.28,2.42,9.85,2.42s6.86-.81,9.9-2.42Z"/>
          <path class="cls-1" d="M909.95,448.69v5.84h-38.49v-5.84h38.49Z"/>
          <path class="cls-1" d="M967.84,471.84h-31.47l-6.04,16.43h-7.32l25.23-68.28h7.82l25.13,68.28h-7.32l-6.04-16.43ZM965.76,466.11l-13.66-37.4-13.66,37.4h27.31Z"/>
          <path class="cls-1" d="M1072.08,439.24c3.99,3.99,5.99,9.78,5.99,17.37v31.67h-6.83v-30.87c0-5.87-1.42-10.36-4.25-13.46-2.84-3.1-6.7-4.65-11.58-4.65s-9.14,1.68-12.17,5.05c-3.03,3.36-4.55,8.25-4.55,14.64v29.29h-6.83v-30.87c0-5.87-1.42-10.36-4.25-13.46-2.84-3.1-6.73-4.65-11.68-4.65s-9.14,1.68-12.17,5.05c-3.03,3.36-4.55,8.25-4.55,14.64v29.29h-6.93v-54.03h6.93v9.3c1.72-3.36,4.16-5.92,7.32-7.67,3.17-1.75,6.69-2.62,10.59-2.62,4.68,0,8.79,1.12,12.32,3.36,3.53,2.24,6.08,5.54,7.67,9.9,1.45-4.29,3.94-7.57,7.47-9.85,3.53-2.28,7.54-3.41,12.02-3.41,6.33,0,11.49,2,15.49,5.99Z"/>
          <path class="cls-1" d="M1142.09,463.93h-44.83c.2,4.09,1.19,7.59,2.97,10.49,1.78,2.9,4.12,5.1,7.03,6.58,2.9,1.48,6.07,2.23,9.5,2.23,4.49,0,8.26-1.09,11.33-3.27,3.07-2.18,5.1-5.11,6.08-8.81h7.32c-1.32,5.28-4.14,9.58-8.46,12.91-4.32,3.33-9.75,5-16.28,5-5.08,0-9.63-1.14-13.66-3.41-4.02-2.28-7.17-5.51-9.45-9.7-2.28-4.19-3.41-9.09-3.41-14.69s1.12-10.52,3.36-14.74c2.24-4.22,5.38-7.45,9.4-9.7,4.02-2.24,8.61-3.36,13.75-3.36s9.65,1.12,13.51,3.36c3.86,2.24,6.83,5.26,8.91,9.05,2.08,3.79,3.12,8,3.12,12.62,0,2.38-.07,4.19-.2,5.44ZM1132.84,448c-1.68-2.84-3.97-4.98-6.88-6.43-2.9-1.45-6.07-2.18-9.5-2.18-5.14,0-9.53,1.65-13.16,4.95-3.63,3.3-5.64,7.95-6.04,13.95h38c.07-4.02-.74-7.45-2.42-10.29Z"/>
          <path class="cls-1" d="M1168.86,436.02c3.13-1.85,6.98-2.77,11.53-2.77v7.22h-1.88c-5.01,0-9.04,1.35-12.07,4.06-3.03,2.71-4.55,7.22-4.55,13.56v30.18h-6.93v-54.03h6.93v9.6c1.52-3.36,3.84-5.97,6.98-7.82Z"/>
          <path class="cls-1" d="M1190.67,422.57c-.99-.99-1.48-2.21-1.48-3.66s.49-2.65,1.48-3.61c.99-.96,2.18-1.43,3.56-1.43s2.57.48,3.56,1.43c.99.96,1.48,2.16,1.48,3.61s-.49,2.67-1.48,3.66c-.99.99-2.18,1.48-3.56,1.48s-2.57-.49-3.56-1.48ZM1197.7,434.24v54.03h-6.93v-54.03h6.93Z"/>
          <path class="cls-1" d="M1213.63,446.56c2.24-4.19,5.34-7.42,9.3-9.7,3.96-2.28,8.48-3.41,13.56-3.41,6.66,0,12.15,1.65,16.48,4.95,4.32,3.3,7.11,7.78,8.36,13.46h-7.42c-.92-3.89-2.92-6.94-5.99-9.15-3.07-2.21-6.88-3.32-11.43-3.32-3.63,0-6.89.83-9.8,2.47-2.9,1.65-5.2,4.11-6.88,7.37-1.68,3.27-2.52,7.27-2.52,12.02s.84,8.77,2.52,12.07c1.68,3.3,3.97,5.77,6.88,7.42,2.9,1.65,6.17,2.47,9.8,2.47,4.55,0,8.36-1.1,11.43-3.32,3.07-2.21,5.06-5.29,5.99-9.25h7.42c-1.25,5.54-4.06,9.99-8.41,13.36-4.35,3.36-9.83,5.05-16.43,5.05-5.08,0-9.6-1.14-13.56-3.41-3.96-2.28-7.06-5.51-9.3-9.7-2.24-4.19-3.36-9.09-3.36-14.69s1.12-10.5,3.36-14.69Z"/>
          <path class="cls-1" d="M1274.24,446.56c2.21-4.19,5.28-7.42,9.2-9.7,3.92-2.28,8.36-3.41,13.31-3.41s9.58,1.19,13.31,3.56c3.73,2.37,6.41,5.41,8.06,9.1v-11.87h6.93v54.03h-6.93v-11.97c-1.72,3.7-4.44,6.75-8.16,9.15-3.73,2.41-8.16,3.61-13.31,3.61s-9.29-1.15-13.21-3.46c-3.93-2.31-6.99-5.57-9.2-9.8-2.21-4.22-3.32-9.1-3.32-14.64s1.1-10.41,3.32-14.6ZM1315.45,449.78c-1.78-3.3-4.2-5.84-7.27-7.62-3.07-1.78-6.45-2.67-10.14-2.67s-7.26.86-10.29,2.57c-3.03,1.72-5.43,4.21-7.17,7.47-1.75,3.27-2.62,7.14-2.62,11.63s.87,8.3,2.62,11.63c1.75,3.33,4.14,5.87,7.17,7.62,3.03,1.75,6.46,2.62,10.29,2.62s7.08-.89,10.14-2.67c3.07-1.78,5.49-4.32,7.27-7.62,1.78-3.3,2.67-7.13,2.67-11.48s-.89-8.18-2.67-11.48Z"/>
          <path class="cls-1" d="M1382.05,439.24c4.09,3.99,6.14,9.78,6.14,17.37v31.67h-6.83v-30.87c0-5.87-1.47-10.36-4.4-13.46-2.94-3.1-6.94-4.65-12.02-4.65s-9.37,1.65-12.47,4.95c-3.1,3.3-4.65,8.15-4.65,14.55v29.49h-6.93v-54.03h6.93v9.2c1.72-3.3,4.19-5.82,7.42-7.57,3.23-1.75,6.89-2.62,10.98-2.62,6.46,0,11.74,2,15.83,5.99Z"/>
          <path class="cls-1" d="M1403.67,446.56c2.21-4.19,5.28-7.42,9.2-9.7,3.92-2.28,8.36-3.41,13.31-3.41s9.58,1.19,13.31,3.56c3.73,2.37,6.41,5.41,8.06,9.1v-11.87h6.93v54.03h-6.93v-11.97c-1.72,3.7-4.44,6.75-8.16,9.15-3.73,2.41-8.16,3.61-13.31,3.61s-9.29-1.15-13.21-3.46c-3.93-2.31-6.99-5.57-9.2-9.8-2.21-4.22-3.32-9.1-3.32-14.64s1.1-10.41,3.32-14.6ZM1444.88,449.78c-1.78-3.3-4.2-5.84-7.27-7.62s-6.45-2.67-10.14-2.67-7.26.86-10.29,2.57c-3.03,1.72-5.43,4.21-7.17,7.47-1.75,3.27-2.62,7.14-2.62,11.63s.87,8.3,2.62,11.63c1.75,3.33,4.14,5.87,7.17,7.62,3.03,1.75,6.46,2.62,10.29,2.62s7.08-.89,10.14-2.67c3.07-1.78,5.49-4.32,7.27-7.62,1.78-3.3,2.67-7.13,2.67-11.48s-.89-8.18-2.67-11.48ZM1439.09,424.84c-2.34,2.31-5.66,3.46-9.95,3.46s-7.59-1.15-9.89-3.46c-2.31-2.31-3.46-5.21-3.46-8.71v-1.29h4.35c0,5.28,3,7.92,9,7.92s9.01-2.64,9.01-7.92h4.45v1.29c0,3.5-1.17,6.4-3.51,8.71Z"/>
        </g>
        <g>
          <path class="cls-1" d="M189.54,565.3c2.24-4.19,5.33-7.42,9.25-9.7,3.92-2.28,8.36-3.41,13.31-3.41s9.04,1.15,12.86,3.46c3.83,2.31,6.63,5.31,8.41,9v-30.87h6.93v73.22h-6.93v-12.07c-1.65,3.76-4.35,6.84-8.11,9.25-3.76,2.41-8.18,3.61-13.26,3.61s-9.39-1.15-13.31-3.46c-3.93-2.31-6.99-5.57-9.2-9.8-2.21-4.22-3.32-9.1-3.32-14.65s1.12-10.4,3.36-14.6ZM230.7,568.52c-1.78-3.3-4.21-5.84-7.27-7.62-3.07-1.78-6.45-2.67-10.14-2.67s-7.26.86-10.29,2.57c-3.04,1.72-5.43,4.21-7.17,7.47-1.75,3.27-2.62,7.14-2.62,11.63s.87,8.3,2.62,11.63c1.75,3.33,4.14,5.87,7.17,7.62,3.03,1.75,6.46,2.62,10.29,2.62s7.07-.89,10.14-2.67c3.07-1.78,5.49-4.32,7.27-7.62,1.78-3.3,2.67-7.13,2.67-11.48s-.89-8.18-2.67-11.48Z"/>
          <path class="cls-1" d="M304.82,582.67h-44.83c.2,4.09,1.19,7.59,2.97,10.49,1.78,2.9,4.12,5.1,7.03,6.58,2.9,1.48,6.07,2.23,9.5,2.23,4.48,0,8.26-1.09,11.33-3.27,3.07-2.18,5.1-5.11,6.09-8.81h7.32c-1.32,5.28-4.14,9.58-8.46,12.91-4.32,3.33-9.75,5-16.28,5-5.08,0-9.63-1.14-13.66-3.41-4.02-2.28-7.17-5.51-9.45-9.7-2.28-4.19-3.41-9.09-3.41-14.7s1.12-10.52,3.36-14.74c2.24-4.22,5.38-7.45,9.4-9.7,4.02-2.24,8.61-3.36,13.75-3.36s9.65,1.12,13.51,3.36c3.86,2.24,6.83,5.26,8.91,9.05,2.08,3.79,3.12,8,3.12,12.62,0,2.37-.07,4.19-.2,5.44ZM295.57,566.74c-1.68-2.84-3.97-4.98-6.88-6.43-2.9-1.45-6.07-2.18-9.5-2.18-5.15,0-9.53,1.65-13.16,4.95-3.63,3.3-5.64,7.95-6.04,13.95h38c.06-4.02-.74-7.45-2.42-10.29Z"/>
          <path class="cls-1" d="M351.72,601.37h24.84v5.64h-31.76v-69.17h6.93v63.53Z"/>
          <path class="cls-1" d="M396.4,604.39c-4.06-2.28-7.26-5.51-9.6-9.7-2.34-4.19-3.51-9.09-3.51-14.7s1.19-10.5,3.56-14.69c2.37-4.19,5.6-7.42,9.7-9.7,4.09-2.28,8.67-3.41,13.75-3.41s9.68,1.14,13.8,3.41c4.12,2.28,7.35,5.51,9.7,9.7,2.34,4.19,3.51,9.09,3.51,14.69s-1.19,10.43-3.56,14.65c-2.38,4.22-5.64,7.47-9.8,9.75-4.16,2.28-8.77,3.41-13.85,3.41s-9.65-1.14-13.7-3.41ZM420,599.34c3.03-1.61,5.49-4.06,7.37-7.32,1.88-3.27,2.82-7.27,2.82-12.02s-.92-8.76-2.77-12.02c-1.85-3.27-4.29-5.71-7.32-7.32-3.03-1.62-6.33-2.42-9.9-2.42s-6.86.81-9.89,2.42c-3.03,1.62-5.46,4.06-7.27,7.32-1.81,3.27-2.72,7.27-2.72,12.02s.91,8.76,2.72,12.02c1.81,3.27,4.22,5.71,7.22,7.32,3,1.62,6.28,2.42,9.85,2.42s6.86-.81,9.9-2.42Z"/>
          <path class="cls-1" d="M485.9,555.76c3.76,2.38,6.46,5.38,8.11,9v-11.77h6.93v55.41c0,4.95-1.07,9.33-3.22,13.16-2.14,3.83-5.13,6.78-8.96,8.86-3.83,2.08-8.18,3.12-13.06,3.12-6.93,0-12.68-1.65-17.27-4.95-4.59-3.3-7.44-7.78-8.56-13.46h6.83c1.19,3.76,3.45,6.76,6.78,9,3.33,2.24,7.4,3.36,12.22,3.36,3.5,0,6.63-.74,9.4-2.23,2.77-1.48,4.95-3.68,6.53-6.58,1.58-2.9,2.38-6.33,2.38-10.29v-13.36c-1.72,3.69-4.44,6.75-8.16,9.15-3.73,2.41-8.13,3.61-13.21,3.61s-9.38-1.15-13.31-3.46c-3.93-2.31-6.99-5.57-9.2-9.8-2.21-4.22-3.32-9.1-3.32-14.65s1.1-10.4,3.32-14.6c2.21-4.19,5.28-7.42,9.2-9.7,3.92-2.28,8.36-3.41,13.31-3.41s9.5,1.19,13.26,3.56ZM491.34,568.52c-1.78-3.3-4.2-5.84-7.27-7.62-3.07-1.78-6.45-2.67-10.14-2.67s-7.26.86-10.29,2.57c-3.03,1.72-5.43,4.21-7.17,7.47-1.75,3.27-2.62,7.14-2.62,11.63s.87,8.3,2.62,11.63c1.75,3.33,4.14,5.87,7.17,7.62,3.03,1.75,6.46,2.62,10.29,2.62s7.08-.89,10.14-2.67c3.07-1.78,5.49-4.32,7.27-7.62,1.78-3.3,2.67-7.13,2.67-11.48s-.89-8.18-2.67-11.48Z"/>
          <path class="cls-1" d="M516.67,541.31c-.99-.99-1.48-2.21-1.48-3.66s.49-2.66,1.48-3.61c.99-.96,2.18-1.43,3.56-1.43s2.57.48,3.56,1.43c.99.96,1.48,2.16,1.48,3.61s-.49,2.67-1.48,3.66c-.99.99-2.18,1.48-3.56,1.48s-2.57-.49-3.56-1.48ZM523.7,552.99v54.03h-6.93v-54.03h6.93Z"/>
          <path class="cls-1" d="M542.84,603.5c-3.93-2.87-6.12-6.78-6.58-11.73h7.12c.33,3.03,1.76,5.49,4.3,7.37,2.54,1.88,5.95,2.82,10.24,2.82,3.76,0,6.71-.89,8.86-2.67,2.14-1.78,3.22-3.99,3.22-6.63,0-1.85-.59-3.36-1.78-4.55-1.19-1.19-2.69-2.13-4.5-2.82-1.81-.69-4.27-1.43-7.37-2.23-4.02-1.05-7.29-2.11-9.8-3.17-2.51-1.05-4.63-2.62-6.38-4.7-1.75-2.08-2.62-4.86-2.62-8.36,0-2.64.79-5.08,2.38-7.32,1.58-2.24,3.83-4.02,6.73-5.34,2.9-1.32,6.2-1.98,9.9-1.98,5.8,0,10.49,1.47,14.05,4.4,3.56,2.94,5.47,6.98,5.74,12.12h-6.93c-.2-3.17-1.43-5.72-3.71-7.67-2.28-1.94-5.39-2.92-9.35-2.92-3.5,0-6.33.82-8.51,2.47-2.18,1.65-3.27,3.69-3.27,6.13,0,2.11.64,3.84,1.93,5.2,1.29,1.35,2.88,2.41,4.8,3.17,1.91.76,4.48,1.6,7.72,2.52,3.89,1.06,6.99,2.08,9.3,3.07,2.31.99,4.29,2.44,5.94,4.35,1.65,1.91,2.51,4.45,2.57,7.62,0,2.9-.79,5.49-2.38,7.77-1.58,2.28-3.79,4.08-6.63,5.39-2.84,1.32-6.1,1.98-9.8,1.98-6.2,0-11.27-1.43-15.19-4.3Z"/>
          <path class="cls-1" d="M598.9,558.82v33.54c0,3.3.63,5.57,1.88,6.83,1.25,1.25,3.46,1.88,6.63,1.88h6.33v5.94h-7.42c-4.88,0-8.51-1.14-10.89-3.41s-3.56-6.02-3.56-11.23v-33.54h-7.52v-5.84h7.52v-13.56h7.03v13.56h14.84v5.84h-14.84Z"/>
          <path class="cls-1" d="M625.02,541.31c-.99-.99-1.48-2.21-1.48-3.66s.49-2.66,1.48-3.61c.99-.96,2.18-1.43,3.56-1.43s2.57.48,3.56,1.43c.99.96,1.48,2.16,1.48,3.61s-.49,2.67-1.48,3.66c-.99.99-2.18,1.48-3.56,1.48s-2.57-.49-3.56-1.48ZM632.05,552.99v54.03h-6.93v-54.03h6.93Z"/>
          <path class="cls-1" d="M647.98,565.3c2.24-4.19,5.34-7.42,9.3-9.7,3.96-2.28,8.48-3.41,13.56-3.41,6.66,0,12.15,1.65,16.48,4.95,4.32,3.3,7.11,7.78,8.36,13.46h-7.42c-.92-3.89-2.92-6.94-5.99-9.15-3.07-2.21-6.88-3.31-11.43-3.31-3.63,0-6.89.82-9.8,2.47-2.9,1.65-5.2,4.11-6.88,7.37-1.68,3.27-2.52,7.27-2.52,12.02s.84,8.77,2.52,12.07c1.68,3.3,3.97,5.77,6.88,7.42,2.9,1.65,6.17,2.47,9.8,2.47,4.55,0,8.36-1.1,11.43-3.32,3.07-2.21,5.06-5.29,5.99-9.25h7.42c-1.25,5.54-4.06,9.99-8.41,13.36-4.35,3.36-9.83,5.05-16.43,5.05-5.08,0-9.6-1.14-13.56-3.41-3.96-2.28-7.06-5.51-9.3-9.7-2.24-4.19-3.36-9.09-3.36-14.7s1.12-10.5,3.36-14.69Z"/>
          <path class="cls-1" d="M708.59,565.3c2.21-4.19,5.28-7.42,9.2-9.7,3.92-2.28,8.36-3.41,13.31-3.41s9.58,1.19,13.31,3.56c3.73,2.38,6.41,5.41,8.06,9.1v-11.87h6.93v54.03h-6.93v-11.97c-1.72,3.69-4.44,6.75-8.16,9.15-3.73,2.41-8.16,3.61-13.31,3.61s-9.29-1.15-13.21-3.46c-3.93-2.31-6.99-5.57-9.2-9.8-2.21-4.22-3.32-9.1-3.32-14.65s1.1-10.4,3.32-14.6ZM749.8,568.52c-1.78-3.3-4.2-5.84-7.27-7.62-3.07-1.78-6.45-2.67-10.14-2.67s-7.26.86-10.29,2.57c-3.03,1.72-5.43,4.21-7.17,7.47-1.75,3.27-2.62,7.14-2.62,11.63s.87,8.3,2.62,11.63c1.75,3.33,4.14,5.87,7.17,7.62,3.03,1.75,6.46,2.62,10.29,2.62s7.08-.89,10.14-2.67c3.07-1.78,5.49-4.32,7.27-7.62,1.78-3.3,2.67-7.13,2.67-11.48s-.89-8.18-2.67-11.48ZM744.01,543.58c-2.34,2.31-5.66,3.46-9.95,3.46s-7.59-1.15-9.89-3.46c-2.31-2.31-3.46-5.21-3.46-8.71v-1.29h4.35c0,5.28,3,7.92,9,7.92s9.01-2.64,9.01-7.92h4.45v1.29c0,3.5-1.17,6.4-3.51,8.71Z"/>
          <path class="cls-1" d="M805.75,603.5c-3.93-2.87-6.12-6.78-6.58-11.73h7.12c.33,3.03,1.76,5.49,4.3,7.37,2.54,1.88,5.95,2.82,10.24,2.82,3.76,0,6.71-.89,8.86-2.67,2.14-1.78,3.22-3.99,3.22-6.63,0-1.85-.59-3.36-1.78-4.55-1.19-1.19-2.69-2.13-4.5-2.82-1.81-.69-4.27-1.43-7.37-2.23-4.02-1.05-7.29-2.11-9.8-3.17-2.51-1.05-4.63-2.62-6.38-4.7-1.75-2.08-2.62-4.86-2.62-8.36,0-2.64.79-5.08,2.38-7.32,1.58-2.24,3.83-4.02,6.73-5.34,2.9-1.32,6.2-1.98,9.9-1.98,5.8,0,10.49,1.47,14.05,4.4,3.56,2.94,5.47,6.98,5.74,12.12h-6.93c-.2-3.17-1.43-5.72-3.71-7.67-2.28-1.94-5.39-2.92-9.35-2.92-3.5,0-6.33.82-8.51,2.47s-3.27,3.69-3.27,6.13c0,2.11.64,3.84,1.93,5.2,1.29,1.35,2.88,2.41,4.8,3.17,1.91.76,4.48,1.6,7.72,2.52,3.89,1.06,6.99,2.08,9.3,3.07,2.31.99,4.29,2.44,5.94,4.35,1.65,1.91,2.51,4.45,2.57,7.62,0,2.9-.79,5.49-2.38,7.77-1.58,2.28-3.79,4.08-6.63,5.39-2.84,1.32-6.1,1.98-9.8,1.98-6.2,0-11.27-1.43-15.19-4.3ZM825.2,618.79c0,3.69-.76,6.38-2.28,8.07-1.52,1.68-3.73,2.52-6.63,2.52v-3.46c3.03,0,4.55-1.85,4.55-5.54v-1.39h-4.26v-6.83h7.82c.53,2.51.79,4.72.79,6.63Z"/>
          <path class="cls-1" d="M852.71,541.31c-.99-.99-1.48-2.21-1.48-3.66s.49-2.66,1.48-3.61c.99-.96,2.18-1.43,3.56-1.43s2.57.48,3.56,1.43c.99.96,1.48,2.16,1.48,3.61s-.49,2.67-1.48,3.66c-.99.99-2.18,1.48-3.56,1.48s-2.57-.49-3.56-1.48ZM859.73,552.99v54.03h-6.93v-54.03h6.93Z"/>
          <path class="cls-1" d="M943.05,537.85v5.74h-19.2v63.43h-6.93v-63.43h-19.3v-5.74h45.42Z"/>
          <path class="cls-1" d="M967.93,554.77c3.13-1.85,6.98-2.77,11.53-2.77v7.22h-1.88c-5.01,0-9.04,1.35-12.07,4.06-3.03,2.71-4.55,7.22-4.55,13.56v30.18h-6.93v-54.03h6.93v9.6c1.52-3.36,3.84-5.97,6.98-7.82Z"/>
          <path class="cls-1" d="M990,565.3c2.21-4.19,5.28-7.42,9.2-9.7,3.92-2.28,8.36-3.41,13.31-3.41s9.58,1.19,13.31,3.56c3.73,2.38,6.41,5.41,8.06,9.1v-11.87h6.93v54.03h-6.93v-11.97c-1.72,3.69-4.44,6.75-8.16,9.15-3.73,2.41-8.16,3.61-13.31,3.61s-9.29-1.15-13.21-3.46c-3.93-2.31-6.99-5.57-9.2-9.8-2.21-4.22-3.32-9.1-3.32-14.65s1.1-10.4,3.32-14.6ZM1031.21,568.52c-1.78-3.3-4.2-5.84-7.27-7.62-3.07-1.78-6.45-2.67-10.14-2.67s-7.26.86-10.29,2.57c-3.03,1.72-5.43,4.21-7.17,7.47-1.75,3.27-2.62,7.14-2.62,11.63s.87,8.3,2.62,11.63c1.75,3.33,4.14,5.87,7.17,7.62,3.03,1.75,6.46,2.62,10.29,2.62s7.08-.89,10.14-2.67c3.07-1.78,5.49-4.32,7.27-7.62s2.67-7.13,2.67-11.48-.89-8.18-2.67-11.48Z"/>
          <path class="cls-1" d="M1097.81,557.98c4.09,3.99,6.14,9.78,6.14,17.37v31.66h-6.83v-30.87c0-5.87-1.47-10.36-4.4-13.46-2.94-3.1-6.94-4.65-12.02-4.65s-9.37,1.65-12.47,4.95c-3.1,3.3-4.65,8.15-4.65,14.55v29.49h-6.93v-54.03h6.93v9.2c1.72-3.3,4.19-5.82,7.42-7.57,3.23-1.75,6.89-2.62,10.98-2.62,6.46,0,11.74,2,15.83,5.99Z"/>
          <path class="cls-1" d="M1122.69,603.5c-3.93-2.87-6.12-6.78-6.58-11.73h7.12c.33,3.03,1.76,5.49,4.3,7.37,2.54,1.88,5.95,2.82,10.24,2.82,3.76,0,6.71-.89,8.86-2.67,2.14-1.78,3.22-3.99,3.22-6.63,0-1.85-.59-3.36-1.78-4.55-1.19-1.19-2.69-2.13-4.5-2.82-1.81-.69-4.27-1.43-7.37-2.23-4.02-1.05-7.29-2.11-9.8-3.17-2.51-1.05-4.63-2.62-6.38-4.7-1.75-2.08-2.62-4.86-2.62-8.36,0-2.64.79-5.08,2.38-7.32,1.58-2.24,3.83-4.02,6.73-5.34,2.9-1.32,6.2-1.98,9.9-1.98,5.8,0,10.49,1.47,14.05,4.4,3.56,2.94,5.47,6.98,5.74,12.12h-6.93c-.2-3.17-1.43-5.72-3.71-7.67-2.28-1.94-5.39-2.92-9.35-2.92-3.5,0-6.33.82-8.51,2.47-2.18,1.65-3.27,3.69-3.27,6.13,0,2.11.64,3.84,1.93,5.2,1.29,1.35,2.88,2.41,4.8,3.17,1.91.76,4.48,1.6,7.72,2.52,3.89,1.06,6.99,2.08,9.3,3.07,2.31.99,4.29,2.44,5.94,4.35,1.65,1.91,2.51,4.45,2.57,7.62,0,2.9-.79,5.49-2.38,7.77-1.58,2.28-3.79,4.08-6.63,5.39-2.84,1.32-6.1,1.98-9.8,1.98-6.2,0-11.27-1.43-15.19-4.3Z"/>
          <path class="cls-1" d="M1184.74,555.81c3.73-2.41,8.16-3.61,13.31-3.61,4.88,0,9.28,1.14,13.21,3.41,3.92,2.28,6.99,5.51,9.2,9.7,2.21,4.19,3.32,9.05,3.32,14.6s-1.11,10.43-3.32,14.65c-2.21,4.22-5.28,7.49-9.2,9.8-3.93,2.31-8.33,3.46-13.21,3.46s-9.5-1.2-13.26-3.61c-3.76-2.41-6.5-5.42-8.21-9.05v37.4h-6.83v-79.56h6.83v11.87c1.72-3.63,4.44-6.65,8.16-9.05ZM1214.12,568.27c-1.75-3.27-4.14-5.75-7.17-7.47-3.04-1.71-6.47-2.57-10.29-2.57s-7.07.89-10.14,2.67c-3.07,1.78-5.49,4.32-7.27,7.62-1.78,3.3-2.67,7.13-2.67,11.48s.89,8.18,2.67,11.48c1.78,3.3,4.21,5.84,7.27,7.62,3.07,1.78,6.45,2.67,10.14,2.67s7.26-.87,10.29-2.62c3.03-1.75,5.42-4.29,7.17-7.62,1.75-3.33,2.62-7.21,2.62-11.63s-.88-8.36-2.62-11.63Z"/>
          <path class="cls-1" d="M1246.48,604.39c-4.06-2.28-7.26-5.51-9.6-9.7-2.34-4.19-3.51-9.09-3.51-14.7s1.19-10.5,3.56-14.69c2.37-4.19,5.6-7.42,9.7-9.7,4.09-2.28,8.67-3.41,13.75-3.41s9.68,1.14,13.8,3.41c4.12,2.28,7.35,5.51,9.7,9.7,2.34,4.19,3.51,9.09,3.51,14.69s-1.19,10.43-3.56,14.65c-2.38,4.22-5.64,7.47-9.8,9.75-4.16,2.28-8.77,3.41-13.85,3.41s-9.65-1.14-13.7-3.41ZM1270.08,599.34c3.03-1.61,5.49-4.06,7.37-7.32,1.88-3.27,2.82-7.27,2.82-12.02s-.92-8.76-2.77-12.02-4.29-5.71-7.32-7.32c-3.03-1.62-6.33-2.42-9.9-2.42s-6.86.81-9.89,2.42c-3.03,1.62-5.46,4.06-7.27,7.32-1.81,3.27-2.72,7.27-2.72,12.02s.91,8.76,2.72,12.02c1.81,3.27,4.22,5.71,7.22,7.32,3,1.62,6.28,2.42,9.85,2.42s6.86-.81,9.9-2.42Z"/>
          <path class="cls-1" d="M1313.97,554.77c3.13-1.85,6.98-2.77,11.53-2.77v7.22h-1.88c-5.01,0-9.04,1.35-12.07,4.06-3.03,2.71-4.55,7.22-4.55,13.56v30.18h-6.93v-54.03h6.93v9.6c1.52-3.36,3.84-5.97,6.98-7.82Z"/>
          <path class="cls-1" d="M1344.89,558.82v33.54c0,3.3.63,5.57,1.88,6.83,1.25,1.25,3.46,1.88,6.63,1.88h6.33v5.94h-7.42c-4.88,0-8.51-1.14-10.89-3.41-2.38-2.28-3.56-6.02-3.56-11.23v-33.54h-7.52v-5.84h7.52v-13.56h7.03v13.56h14.84v5.84h-14.84Z"/>
        </g>
      </g>
    </g>
  </g>
</svg>