<?xml version="1.0" encoding="UTF-8"?>
<svg id="Layer_2" data-name="Layer 2" xmlns="http://www.w3.org/2000/svg" viewBox="0 0 3661.64 311.59">
  <defs>
    <style>
      .cls-1 {
        fill: #172a53;
        stroke-width: 0px;
      }
    </style>
  </defs>
  <g id="Layer_1-2" data-name="Layer 1">
    <g>
      <rect class="cls-1" x="1631.7" y="8.32" width="10.77" height="303.27"/>
      <g>
        <path class="cls-1" d="M215.89,265.76h-101.09l-14.99,45.83H0L110.94,8.32h109.66l110.51,303.27h-100.23l-14.99-45.83ZM192.76,194.22l-27.41-84.38-27.41,84.38h54.83Z"/>
        <path class="cls-1" d="M717.06,8.32v303.27h-94.67v-151.21l-46.69,151.21h-81.39l-46.69-151.21v151.21h-95.09V8.32h116.51l66.82,182.05L600.97,8.32h116.08Z"/>
        <path class="cls-1" d="M954.36,265.76h-101.09l-14.99,45.83h-99.81L849.41,8.32h109.66l110.51,303.27h-100.23l-14.99-45.83ZM931.23,194.22l-27.41-84.38-27.41,84.38h54.83Z"/>
        <path class="cls-1" d="M1186.09,239.63h91.67v71.96h-186.76V8.32h95.09v231.31Z"/>
        <path class="cls-1" d="M1545.91,8.32v75.39h-80.53v227.88h-95.09V83.71h-79.67V8.32h255.3Z"/>
      </g>
      <g>
        <g>
          <path class="cls-1" d="M1791.85,82.25h-44.63l-8.56,23.3h-10.39l35.79-96.85h11.09l35.65,96.85h-10.39l-8.56-23.3ZM1788.9,74.11l-19.37-53.05-19.37,53.05h38.74Z"/>
          <path class="cls-1" d="M1831.36,100.56c-5.57-4.07-8.68-9.61-9.33-16.63h10.11c.47,4.3,2.5,7.79,6.1,10.46,3.6,2.67,8.44,4,14.53,4,5.33,0,9.52-1.26,12.56-3.79,3.04-2.53,4.56-5.66,4.56-9.4,0-2.62-.84-4.77-2.53-6.46-1.68-1.68-3.81-3.02-6.39-4-2.58-.98-6.06-2.04-10.46-3.16-5.71-1.5-10.34-2.99-13.9-4.49-3.56-1.5-6.57-3.72-9.05-6.67-2.48-2.95-3.72-6.9-3.72-11.86,0-3.74,1.12-7.2,3.37-10.39,2.25-3.18,5.43-5.71,9.54-7.58,4.12-1.87,8.79-2.81,14.04-2.81,8.23,0,14.88,2.08,19.93,6.25,5.05,4.17,7.76,9.9,8.14,17.19h-9.82c-.28-4.49-2.04-8.12-5.26-10.88-3.23-2.76-7.65-4.14-13.26-4.14-4.96,0-8.98,1.17-12.07,3.51-3.09,2.34-4.63,5.24-4.63,8.7,0,3,.91,5.45,2.74,7.37,1.82,1.92,4.09,3.42,6.81,4.49,2.71,1.08,6.36,2.27,10.95,3.58,5.52,1.5,9.92,2.95,13.19,4.35,3.27,1.4,6.08,3.46,8.42,6.18,2.34,2.72,3.55,6.32,3.65,10.81,0,4.12-1.12,7.79-3.37,11.02-2.24,3.23-5.38,5.78-9.4,7.65-4.02,1.87-8.66,2.81-13.9,2.81-8.8,0-15.98-2.04-21.54-6.11Z"/>
          <path class="cls-1" d="M1912.2,101.83c-5.76-3.23-10.29-7.81-13.61-13.75-3.32-5.94-4.98-12.89-4.98-20.84s1.68-14.9,5.05-20.84c3.37-5.94,7.95-10.53,13.75-13.75,5.8-3.23,12.3-4.84,19.51-4.84s13.73,1.61,19.58,4.84c5.85,3.23,10.43,7.81,13.75,13.75,3.32,5.94,4.98,12.89,4.98,20.84s-1.68,14.79-5.05,20.77c-3.37,5.99-8,10.6-13.89,13.83-5.9,3.23-12.45,4.84-19.65,4.84s-13.68-1.61-19.44-4.84ZM1945.67,94.67c4.3-2.29,7.79-5.76,10.46-10.39,2.67-4.63,4-10.32,4-17.05s-1.31-12.42-3.93-17.05c-2.62-4.63-6.08-8.09-10.39-10.39-4.3-2.29-8.98-3.44-14.04-3.44s-9.73,1.15-14.03,3.44c-4.3,2.29-7.74,5.76-10.32,10.39-2.57,4.63-3.86,10.32-3.86,17.05s1.29,12.42,3.86,17.05c2.57,4.63,5.99,8.09,10.25,10.39,4.26,2.29,8.91,3.44,13.96,3.44s9.73-1.15,14.04-3.44Z"/>
          <path class="cls-1" d="M1988.48,46.39c3.18-5.94,7.58-10.53,13.19-13.75,5.61-3.23,12.02-4.84,19.23-4.84,9.45,0,17.24,2.34,23.37,7.02,6.13,4.68,10.08,11.04,11.86,19.09h-10.53c-1.31-5.52-4.14-9.85-8.49-12.98-4.35-3.13-9.76-4.7-16.21-4.7-5.15,0-9.78,1.17-13.89,3.51-4.12,2.34-7.37,5.83-9.76,10.46-2.39,4.63-3.58,10.32-3.58,17.05s1.19,12.45,3.58,17.12c2.39,4.68,5.64,8.19,9.76,10.53,4.12,2.34,8.75,3.51,13.89,3.51,6.46,0,11.86-1.57,16.21-4.7,4.35-3.13,7.18-7.51,8.49-13.12h10.53c-1.78,7.86-5.76,14.18-11.93,18.95-6.17,4.77-13.94,7.16-23.3,7.16-7.21,0-13.61-1.61-19.23-4.84-5.61-3.23-10.01-7.81-13.19-13.75-3.18-5.94-4.77-12.89-4.77-20.84s1.59-14.9,4.77-20.84Z"/>
          <path class="cls-1" d="M2074.1,12.35c-1.4-1.4-2.11-3.13-2.11-5.19s.7-3.76,2.11-5.12c1.4-1.36,3.09-2.04,5.05-2.04s3.65.68,5.05,2.04c1.4,1.36,2.11,3.07,2.11,5.12s-.7,3.79-2.11,5.19c-1.4,1.4-3.09,2.11-5.05,2.11s-3.65-.7-5.05-2.11ZM2084.06,28.91v76.63h-9.82V28.91h9.82Z"/>
          <path class="cls-1" d="M2106.59,46.39c3.13-5.94,7.48-10.53,13.05-13.75,5.57-3.23,11.86-4.84,18.88-4.84s13.59,1.68,18.88,5.05c5.29,3.37,9.1,7.67,11.44,12.91v-16.84h9.83v76.63h-9.83v-16.98c-2.43,5.24-6.29,9.57-11.58,12.98-5.29,3.42-11.58,5.12-18.88,5.12s-13.17-1.64-18.74-4.91c-5.57-3.27-9.92-7.91-13.05-13.9-3.14-5.99-4.7-12.91-4.7-20.77s1.57-14.76,4.7-20.7ZM2165.05,50.95c-2.53-4.68-5.96-8.28-10.31-10.81-4.35-2.53-9.15-3.79-14.39-3.79s-10.29,1.22-14.6,3.65c-4.3,2.43-7.7,5.97-10.18,10.6-2.48,4.63-3.72,10.13-3.72,16.49s1.24,11.77,3.72,16.49c2.48,4.73,5.87,8.33,10.18,10.81,4.3,2.48,9.17,3.72,14.6,3.72s10.04-1.26,14.39-3.79c4.35-2.53,7.79-6.13,10.31-10.81,2.53-4.68,3.79-10.11,3.79-16.28s-1.26-11.6-3.79-16.28Z"/>
          <path class="cls-1" d="M2213.89,37.19v47.58c0,4.68.89,7.91,2.67,9.68,1.78,1.78,4.91,2.67,9.4,2.67h8.98v8.42h-10.53c-6.93,0-12.07-1.61-15.44-4.84-3.37-3.23-5.05-8.54-5.05-15.93v-47.58h-10.67v-8.28h10.67V9.68h9.97v19.23h21.05v8.28h-21.05ZM2222.45,112.85c.75,2.99,1.12,6.13,1.12,9.4,0,5.24-1.08,9.05-3.23,11.44-2.15,2.39-5.29,3.58-9.4,3.58v-4.91c4.3,0,6.46-2.62,6.46-7.86v-1.97h-6.04v-9.69h11.09Z"/>
          <path class="cls-1" d="M2250.94,12.35c-1.4-1.4-2.11-3.13-2.11-5.19s.7-3.76,2.11-5.12c1.4-1.36,3.09-2.04,5.05-2.04s3.65.68,5.05,2.04c1.4,1.36,2.11,3.07,2.11,5.12s-.7,3.79-2.11,5.19c-1.4,1.4-3.09,2.11-5.05,2.11s-3.65-.7-5.05-2.11ZM2260.91,28.91v76.63h-9.82V28.91h9.82Z"/>
          <path class="cls-1" d="M2283.43,46.39c3.13-5.94,7.48-10.53,13.05-13.75,5.57-3.23,11.86-4.84,18.88-4.84s13.59,1.68,18.88,5.05c5.29,3.37,9.1,7.67,11.44,12.91v-16.84h9.83v76.63h-9.83v-16.98c-2.43,5.24-6.29,9.57-11.58,12.98-5.29,3.42-11.58,5.12-18.88,5.12s-13.17-1.64-18.74-4.91c-5.57-3.27-9.92-7.91-13.05-13.9-3.14-5.99-4.7-12.91-4.7-20.77s1.57-14.76,4.7-20.7ZM2341.89,50.95c-2.53-4.68-5.96-8.28-10.31-10.81-4.35-2.53-9.15-3.79-14.39-3.79s-10.29,1.22-14.6,3.65c-4.3,2.43-7.7,5.97-10.18,10.6-2.48,4.63-3.72,10.13-3.72,16.49s1.24,11.77,3.72,16.49c2.48,4.73,5.87,8.33,10.18,10.81,4.3,2.48,9.17,3.72,14.6,3.72s10.04-1.26,14.39-3.79c4.35-2.53,7.79-6.13,10.31-10.81,2.53-4.68,3.79-10.11,3.79-16.28s-1.26-11.6-3.79-16.28Z"/>
          <path class="cls-1" d="M2512.28,8.7v96.85h-9.83V28.21l-34.53,77.34h-7.16l-34.53-77.06v77.06h-9.82V8.7h10.39l37.48,83.93,37.47-83.93h10.53Z"/>
          <path class="cls-1" d="M2548.7,101.83c-5.76-3.23-10.29-7.81-13.61-13.75-3.32-5.94-4.98-12.89-4.98-20.84s1.68-14.9,5.05-20.84c3.37-5.94,7.95-10.53,13.75-13.75,5.8-3.23,12.3-4.84,19.51-4.84s13.73,1.61,19.58,4.84c5.85,3.23,10.43,7.81,13.75,13.75,3.32,5.94,4.98,12.89,4.98,20.84s-1.68,14.79-5.05,20.77c-3.37,5.99-8,10.6-13.89,13.83-5.9,3.23-12.45,4.84-19.65,4.84s-13.68-1.61-19.44-4.84ZM2582.18,94.67c4.3-2.29,7.79-5.76,10.46-10.39,2.67-4.63,4-10.32,4-17.05s-1.31-12.42-3.93-17.05c-2.62-4.63-6.08-8.09-10.39-10.39-4.3-2.29-8.98-3.44-14.04-3.44s-9.73,1.15-14.03,3.44c-4.3,2.29-7.74,5.76-10.32,10.39-2.57,4.63-3.86,10.32-3.86,17.05s1.29,12.42,3.86,17.05c2.57,4.63,5.99,8.09,10.25,10.39,4.26,2.29,8.91,3.44,13.96,3.44s9.73-1.15,14.04-3.44Z"/>
          <path class="cls-1" d="M2634.53,1.68v103.86h-9.82V1.68h9.82Z"/>
          <path class="cls-1" d="M2657.13,46.39c3.18-5.94,7.55-10.53,13.12-13.75,5.57-3.23,11.86-4.84,18.88-4.84s12.82,1.64,18.25,4.91c5.43,3.28,9.4,7.53,11.93,12.77V1.68h9.83v103.86h-9.83v-17.12c-2.34,5.33-6.18,9.71-11.51,13.12-5.33,3.42-11.6,5.12-18.81,5.12s-13.31-1.64-18.88-4.91c-5.57-3.27-9.92-7.91-13.05-13.9-3.14-5.99-4.7-12.91-4.7-20.77s1.59-14.76,4.77-20.7ZM2715.51,50.95c-2.53-4.68-5.96-8.28-10.31-10.81-4.35-2.53-9.15-3.79-14.39-3.79s-10.29,1.22-14.6,3.65c-4.3,2.43-7.7,5.97-10.18,10.6-2.48,4.63-3.72,10.13-3.72,16.49s1.24,11.77,3.72,16.49c2.48,4.73,5.87,8.33,10.18,10.81,4.3,2.48,9.17,3.72,14.6,3.72s10.04-1.26,14.39-3.79c4.35-2.53,7.79-6.13,10.31-10.81,2.53-4.68,3.79-10.11,3.79-16.28s-1.26-11.6-3.79-16.28Z"/>
          <path class="cls-1" d="M2765.69,101.83c-5.76-3.23-10.29-7.81-13.61-13.75-3.32-5.94-4.98-12.89-4.98-20.84s1.68-14.9,5.05-20.84c3.37-5.94,7.95-10.53,13.75-13.75,5.8-3.23,12.3-4.84,19.51-4.84s13.73,1.61,19.58,4.84c5.85,3.23,10.43,7.81,13.75,13.75,3.32,5.94,4.98,12.89,4.98,20.84s-1.68,14.79-5.05,20.77c-3.37,5.99-8,10.6-13.89,13.83-5.9,3.23-12.45,4.84-19.65,4.84s-13.68-1.61-19.44-4.84ZM2799.16,94.67c4.3-2.29,7.79-5.76,10.46-10.39,2.67-4.63,4-10.32,4-17.05s-1.31-12.42-3.93-17.05c-2.62-4.63-6.08-8.09-10.39-10.39-4.3-2.29-8.98-3.44-14.04-3.44s-9.73,1.15-14.03,3.44c-4.3,2.29-7.74,5.76-10.32,10.39-2.57,4.63-3.86,10.32-3.86,17.05s1.29,12.42,3.86,17.05c2.57,4.63,5.99,8.09,10.25,10.39,4.26,2.29,8.91,3.44,13.96,3.44s9.73-1.15,14.04-3.44Z"/>
          <path class="cls-1" d="M2889.27,49.41v8.28h-54.6v-8.28h54.6Z"/>
          <path class="cls-1" d="M2971.38,82.25h-44.63l-8.56,23.3h-10.39l35.79-96.85h11.09l35.65,96.85h-10.39l-8.56-23.3ZM2968.43,74.11l-19.37-53.05-19.37,53.05h38.74Z"/>
          <path class="cls-1" d="M3119.24,36c5.66,5.66,8.49,13.87,8.49,24.63v44.91h-9.69v-43.79c0-8.33-2.01-14.69-6.03-19.09-4.03-4.4-9.5-6.6-16.42-6.6s-12.96,2.39-17.26,7.16c-4.3,4.77-6.46,11.7-6.46,20.77v41.55h-9.69v-43.79c0-8.33-2.01-14.69-6.03-19.09-4.03-4.4-9.54-6.6-16.56-6.6s-12.96,2.39-17.26,7.16c-4.3,4.77-6.46,11.7-6.46,20.77v41.55h-9.82V28.91h9.82v13.19c2.43-4.77,5.9-8.4,10.39-10.88,4.49-2.48,9.5-3.72,15.02-3.72,6.64,0,12.47,1.59,17.48,4.77,5,3.18,8.63,7.86,10.88,14.04,2.06-6.08,5.59-10.74,10.6-13.97,5-3.23,10.69-4.84,17.05-4.84,8.98,0,16.3,2.83,21.97,8.49Z"/>
          <path class="cls-1" d="M3218.54,71.02h-63.58c.28,5.8,1.68,10.76,4.21,14.88,2.53,4.12,5.85,7.23,9.97,9.33,4.12,2.11,8.61,3.16,13.47,3.16,6.36,0,11.72-1.54,16.07-4.63,4.35-3.09,7.23-7.25,8.63-12.49h10.39c-1.87,7.49-5.87,13.59-12,18.32-6.13,4.73-13.82,7.09-23.09,7.09-7.21,0-13.66-1.61-19.37-4.84-5.71-3.23-10.18-7.81-13.4-13.75-3.23-5.94-4.84-12.89-4.84-20.84s1.59-14.92,4.77-20.91c3.18-5.99,7.62-10.57,13.33-13.75,5.71-3.18,12.21-4.77,19.51-4.77s13.69,1.59,19.16,4.77c5.47,3.18,9.68,7.46,12.63,12.84,2.95,5.38,4.42,11.35,4.42,17.89,0,3.37-.09,5.94-.28,7.72ZM3205.42,48.42c-2.38-4.02-5.64-7.06-9.75-9.12-4.12-2.06-8.61-3.09-13.48-3.09-7.3,0-13.52,2.34-18.67,7.02-5.15,4.68-8,11.28-8.56,19.79h53.9c.09-5.71-1.05-10.57-3.44-14.6Z"/>
          <path class="cls-1" d="M3256.51,31.44c4.44-2.62,9.89-3.93,16.35-3.93v10.25h-2.67c-7.11,0-12.82,1.92-17.12,5.76-4.3,3.84-6.46,10.25-6.46,19.23v42.81h-9.82V28.91h9.82v13.61c2.15-4.77,5.45-8.47,9.9-11.09Z"/>
          <path class="cls-1" d="M3287.46,12.35c-1.4-1.4-2.11-3.13-2.11-5.19s.7-3.76,2.11-5.12c1.4-1.36,3.09-2.04,5.05-2.04s3.65.68,5.05,2.04c1.4,1.36,2.11,3.07,2.11,5.12s-.7,3.79-2.11,5.19c-1.4,1.4-3.09,2.11-5.05,2.11s-3.65-.7-5.05-2.11ZM3297.42,28.91v76.63h-9.82V28.91h9.82Z"/>
          <path class="cls-1" d="M3320.02,46.39c3.18-5.94,7.58-10.53,13.19-13.75,5.61-3.23,12.02-4.84,19.23-4.84,9.45,0,17.24,2.34,23.37,7.02,6.13,4.68,10.08,11.04,11.86,19.09h-10.53c-1.31-5.52-4.14-9.85-8.49-12.98-4.35-3.13-9.76-4.7-16.21-4.7-5.15,0-9.78,1.17-13.89,3.51-4.12,2.34-7.37,5.83-9.76,10.46-2.39,4.63-3.58,10.32-3.58,17.05s1.19,12.45,3.58,17.12c2.39,4.68,5.64,8.19,9.76,10.53,4.12,2.34,8.75,3.51,13.89,3.51,6.46,0,11.86-1.57,16.21-4.7,4.35-3.13,7.18-7.51,8.49-13.12h10.53c-1.78,7.86-5.76,14.18-11.93,18.95-6.17,4.77-13.94,7.16-23.3,7.16-7.21,0-13.61-1.61-19.23-4.84-5.61-3.23-10.01-7.81-13.19-13.75-3.18-5.94-4.77-12.89-4.77-20.84s1.59-14.9,4.77-20.84Z"/>
          <path class="cls-1" d="M3405.98,46.39c3.13-5.94,7.48-10.53,13.05-13.75,5.57-3.23,11.86-4.84,18.88-4.84s13.59,1.68,18.88,5.05c5.29,3.37,9.1,7.67,11.44,12.91v-16.84h9.83v76.63h-9.83v-16.98c-2.43,5.24-6.29,9.57-11.58,12.98-5.29,3.42-11.58,5.12-18.88,5.12s-13.17-1.64-18.74-4.91c-5.57-3.27-9.92-7.91-13.05-13.9-3.14-5.99-4.7-12.91-4.7-20.77s1.57-14.76,4.7-20.7ZM3464.44,50.95c-2.53-4.68-5.96-8.28-10.31-10.81-4.35-2.53-9.15-3.79-14.39-3.79s-10.29,1.22-14.6,3.65c-4.3,2.43-7.7,5.97-10.18,10.6-2.48,4.63-3.72,10.13-3.72,16.49s1.24,11.77,3.72,16.49c2.48,4.73,5.87,8.33,10.18,10.81,4.3,2.48,9.17,3.72,14.6,3.72s10.04-1.26,14.39-3.79c4.35-2.53,7.79-6.13,10.31-10.81,2.53-4.68,3.79-10.11,3.79-16.28s-1.26-11.6-3.79-16.28Z"/>
          <path class="cls-1" d="M3558.9,36c5.8,5.66,8.7,13.87,8.7,24.63v44.91h-9.69v-43.79c0-8.33-2.08-14.69-6.24-19.09-4.17-4.4-9.85-6.6-17.05-6.6s-13.29,2.34-17.68,7.02c-4.4,4.68-6.6,11.56-6.6,20.63v41.83h-9.82V28.91h9.82v13.05c2.43-4.68,5.94-8.26,10.53-10.74,4.58-2.48,9.78-3.72,15.58-3.72,9.17,0,16.65,2.83,22.46,8.49Z"/>
          <path class="cls-1" d="M3589.57,46.39c3.13-5.94,7.48-10.53,13.05-13.75,5.57-3.23,11.86-4.84,18.88-4.84s13.59,1.68,18.88,5.05c5.29,3.37,9.1,7.67,11.44,12.91v-16.84h9.83v76.63h-9.83v-16.98c-2.43,5.24-6.29,9.57-11.58,12.98-5.29,3.42-11.58,5.12-18.88,5.12s-13.17-1.64-18.74-4.91c-5.57-3.27-9.92-7.91-13.05-13.9-3.14-5.99-4.7-12.91-4.7-20.77s1.57-14.76,4.7-20.7ZM3648.02,50.95c-2.53-4.68-5.96-8.28-10.31-10.81s-9.15-3.79-14.39-3.79-10.29,1.22-14.6,3.65c-4.3,2.43-7.7,5.97-10.18,10.6-2.48,4.63-3.72,10.13-3.72,16.49s1.24,11.77,3.72,16.49c2.48,4.73,5.87,8.33,10.18,10.81,4.3,2.48,9.17,3.72,14.6,3.72s10.04-1.26,14.39-3.79c4.35-2.53,7.79-6.13,10.31-10.81,2.53-4.68,3.79-10.11,3.79-16.28s-1.26-11.6-3.79-16.28ZM3639.81,15.58c-3.32,3.28-8.02,4.91-14.11,4.91s-10.76-1.64-14.03-4.91c-3.28-3.27-4.91-7.39-4.91-12.35v-1.82h6.18c0,7.49,4.26,11.23,12.77,11.23s12.77-3.74,12.77-11.23h6.31v1.82c0,4.96-1.66,9.08-4.98,12.35Z"/>
        </g>
        <g>
          <path class="cls-1" d="M1733.04,214.81c3.18-5.94,7.56-10.53,13.12-13.75,5.57-3.23,11.86-4.84,18.88-4.84s12.82,1.64,18.25,4.91c5.43,3.28,9.4,7.53,11.93,12.77v-43.79h9.83v103.86h-9.83v-17.12c-2.34,5.33-6.18,9.71-11.51,13.12-5.33,3.42-11.6,5.12-18.81,5.12s-13.31-1.64-18.88-4.91c-5.57-3.27-9.92-7.91-13.05-13.89-3.14-5.99-4.7-12.91-4.7-20.77s1.59-14.76,4.77-20.7ZM1791.43,219.38c-2.53-4.68-5.97-8.28-10.32-10.81-4.35-2.52-9.15-3.79-14.39-3.79s-10.29,1.22-14.6,3.65c-4.31,2.43-7.7,5.97-10.18,10.6-2.48,4.63-3.72,10.13-3.72,16.49s1.24,11.77,3.72,16.49c2.48,4.73,5.87,8.33,10.18,10.81,4.3,2.48,9.17,3.72,14.6,3.72s10.04-1.26,14.39-3.79c4.35-2.52,7.79-6.13,10.32-10.81,2.53-4.68,3.79-10.11,3.79-16.28s-1.26-11.6-3.79-16.28Z"/>
          <path class="cls-1" d="M1896.55,239.45h-63.58c.28,5.8,1.68,10.76,4.21,14.88,2.53,4.12,5.85,7.23,9.97,9.33,4.12,2.11,8.61,3.16,13.47,3.16,6.36,0,11.72-1.54,16.07-4.63,4.35-3.09,7.23-7.25,8.63-12.49h10.39c-1.88,7.49-5.87,13.59-12,18.32-6.13,4.73-13.83,7.09-23.09,7.09-7.21,0-13.66-1.61-19.37-4.84-5.71-3.23-10.18-7.81-13.4-13.75-3.23-5.94-4.84-12.89-4.84-20.84s1.59-14.92,4.77-20.91c3.18-5.99,7.63-10.57,13.33-13.75,5.71-3.18,12.21-4.77,19.51-4.77s13.68,1.59,19.16,4.77c5.47,3.18,9.68,7.46,12.63,12.84,2.95,5.38,4.42,11.35,4.42,17.9,0,3.37-.09,5.94-.28,7.72ZM1883.43,216.85c-2.39-4.02-5.64-7.06-9.75-9.12-4.12-2.06-8.61-3.09-13.47-3.09-7.3,0-13.52,2.34-18.67,7.02-5.15,4.68-8,11.28-8.56,19.79h53.9c.09-5.71-1.05-10.57-3.44-14.6Z"/>
          <path class="cls-1" d="M1963.08,265.97h35.23v8h-45.05v-98.11h9.82v90.11Z"/>
          <path class="cls-1" d="M2026.44,270.25c-5.76-3.23-10.29-7.81-13.61-13.75-3.32-5.94-4.98-12.89-4.98-20.84s1.68-14.9,5.05-20.84c3.37-5.94,7.95-10.53,13.75-13.75,5.8-3.23,12.3-4.84,19.51-4.84s13.73,1.61,19.58,4.84c5.85,3.23,10.43,7.81,13.75,13.75,3.32,5.94,4.98,12.89,4.98,20.84s-1.68,14.79-5.05,20.77c-3.37,5.99-8,10.6-13.89,13.82-5.9,3.23-12.45,4.84-19.65,4.84s-13.68-1.61-19.44-4.84ZM2059.92,263.1c4.3-2.29,7.79-5.75,10.46-10.39,2.67-4.63,4-10.32,4-17.05s-1.31-12.42-3.93-17.05c-2.62-4.63-6.08-8.09-10.39-10.39-4.3-2.29-8.98-3.44-14.04-3.44s-9.73,1.15-14.03,3.44c-4.3,2.29-7.74,5.75-10.32,10.39-2.57,4.63-3.86,10.32-3.86,17.05s1.29,12.42,3.86,17.05c2.57,4.63,5.99,8.09,10.25,10.39,4.26,2.29,8.91,3.44,13.96,3.44s9.73-1.14,14.04-3.44Z"/>
          <path class="cls-1" d="M2153.4,201.27c5.33,3.37,9.17,7.63,11.51,12.77v-16.7h9.83v78.6c0,7.02-1.52,13.24-4.56,18.67-3.04,5.43-7.28,9.62-12.7,12.56-5.43,2.95-11.6,4.42-18.53,4.42-9.82,0-17.99-2.34-24.49-7.02-6.5-4.68-10.55-11.04-12.14-19.09h9.68c1.68,5.33,4.89,9.59,9.62,12.77,4.72,3.18,10.5,4.77,17.33,4.77,4.96,0,9.4-1.05,13.33-3.16,3.93-2.11,7.02-5.22,9.26-9.33,2.25-4.12,3.37-8.98,3.37-14.6v-18.95c-2.43,5.24-6.29,9.57-11.58,12.98-5.29,3.42-11.53,5.12-18.74,5.12s-13.31-1.64-18.88-4.91c-5.57-3.27-9.92-7.91-13.05-13.89-3.14-5.99-4.7-12.91-4.7-20.77s1.57-14.76,4.7-20.7c3.13-5.94,7.48-10.53,13.05-13.75,5.57-3.23,11.86-4.84,18.88-4.84s13.48,1.68,18.81,5.05ZM2161.12,219.38c-2.53-4.68-5.96-8.28-10.31-10.81-4.35-2.52-9.15-3.79-14.39-3.79s-10.29,1.22-14.6,3.65c-4.3,2.43-7.7,5.97-10.18,10.6-2.48,4.63-3.72,10.13-3.72,16.49s1.24,11.77,3.72,16.49c2.48,4.73,5.87,8.33,10.18,10.81,4.3,2.48,9.17,3.72,14.6,3.72s10.04-1.26,14.39-3.79c4.35-2.52,7.79-6.13,10.31-10.81,2.53-4.68,3.79-10.11,3.79-16.28s-1.26-11.6-3.79-16.28Z"/>
          <path class="cls-1" d="M2197.05,180.78c-1.4-1.4-2.11-3.13-2.11-5.19s.7-3.77,2.11-5.12c1.4-1.35,3.09-2.04,5.05-2.04s3.65.68,5.05,2.04c1.4,1.36,2.11,3.07,2.11,5.12s-.7,3.79-2.11,5.19c-1.4,1.4-3.09,2.1-5.05,2.1s-3.65-.7-5.05-2.1ZM2207.01,197.34v76.63h-9.82v-76.63h9.82Z"/>
          <path class="cls-1" d="M2234.17,268.99c-5.57-4.07-8.68-9.61-9.33-16.63h10.1c.47,4.3,2.5,7.79,6.11,10.46,3.6,2.67,8.44,4,14.53,4,5.33,0,9.52-1.26,12.56-3.79,3.04-2.52,4.56-5.66,4.56-9.4,0-2.62-.84-4.77-2.53-6.46-1.68-1.68-3.81-3.02-6.39-4-2.57-.98-6.06-2.04-10.46-3.16-5.71-1.5-10.34-2.99-13.9-4.49-3.56-1.5-6.57-3.72-9.05-6.67-2.48-2.95-3.72-6.9-3.72-11.86,0-3.74,1.12-7.2,3.37-10.39,2.24-3.18,5.43-5.71,9.54-7.58,4.12-1.87,8.79-2.81,14.04-2.81,8.23,0,14.88,2.08,19.93,6.25,5.05,4.16,7.76,9.89,8.14,17.19h-9.83c-.28-4.49-2.04-8.12-5.26-10.88-3.23-2.76-7.65-4.14-13.26-4.14-4.96,0-8.98,1.17-12.07,3.51-3.09,2.34-4.63,5.24-4.63,8.7,0,3,.91,5.45,2.74,7.37,1.82,1.92,4.09,3.42,6.81,4.49,2.71,1.08,6.36,2.27,10.95,3.58,5.52,1.5,9.92,2.95,13.19,4.35,3.28,1.4,6.08,3.46,8.42,6.18,2.34,2.72,3.55,6.32,3.65,10.81,0,4.12-1.12,7.79-3.37,11.02-2.25,3.23-5.38,5.78-9.4,7.65-4.02,1.87-8.66,2.81-13.89,2.81-8.8,0-15.98-2.04-21.55-6.11Z"/>
          <path class="cls-1" d="M2313.68,205.62v47.58c0,4.68.89,7.91,2.67,9.68,1.78,1.78,4.91,2.67,9.4,2.67h8.98v8.42h-10.53c-6.93,0-12.07-1.61-15.44-4.84s-5.05-8.54-5.05-15.93v-47.58h-10.67v-8.28h10.67v-19.23h9.97v19.23h21.05v8.28h-21.05Z"/>
          <path class="cls-1" d="M2350.73,180.78c-1.4-1.4-2.11-3.13-2.11-5.19s.7-3.77,2.11-5.12c1.4-1.35,3.09-2.04,5.05-2.04s3.65.68,5.05,2.04c1.4,1.36,2.11,3.07,2.11,5.12s-.7,3.79-2.11,5.19c-1.4,1.4-3.09,2.1-5.05,2.1s-3.65-.7-5.05-2.1ZM2360.7,197.34v76.63h-9.82v-76.63h9.82Z"/>
          <path class="cls-1" d="M2383.29,214.81c3.18-5.94,7.58-10.53,13.19-13.75,5.61-3.23,12.02-4.84,19.23-4.84,9.45,0,17.24,2.34,23.37,7.02,6.13,4.68,10.08,11.04,11.86,19.09h-10.53c-1.31-5.52-4.14-9.85-8.49-12.98-4.35-3.13-9.76-4.7-16.21-4.7-5.15,0-9.78,1.17-13.89,3.51-4.12,2.34-7.37,5.82-9.76,10.46-2.39,4.63-3.58,10.32-3.58,17.05s1.19,12.45,3.58,17.12c2.39,4.68,5.64,8.19,9.76,10.53,4.12,2.34,8.75,3.51,13.89,3.51,6.46,0,11.86-1.57,16.21-4.7,4.35-3.13,7.18-7.51,8.49-13.12h10.53c-1.78,7.86-5.76,14.18-11.93,18.95-6.17,4.77-13.94,7.16-23.3,7.16-7.21,0-13.61-1.61-19.23-4.84-5.61-3.23-10.01-7.81-13.19-13.75-3.18-5.94-4.77-12.89-4.77-20.84s1.59-14.9,4.77-20.84Z"/>
          <path class="cls-1" d="M2469.26,214.81c3.13-5.94,7.48-10.53,13.05-13.75,5.57-3.23,11.86-4.84,18.88-4.84s13.59,1.68,18.88,5.05c5.29,3.37,9.1,7.67,11.44,12.91v-16.84h9.83v76.63h-9.83v-16.98c-2.43,5.24-6.29,9.57-11.58,12.98-5.29,3.42-11.58,5.12-18.88,5.12s-13.17-1.64-18.74-4.91c-5.57-3.27-9.92-7.91-13.05-13.89-3.14-5.99-4.7-12.91-4.7-20.77s1.57-14.76,4.7-20.7ZM2527.72,219.38c-2.53-4.68-5.96-8.28-10.31-10.81-4.35-2.52-9.15-3.79-14.39-3.79s-10.29,1.22-14.6,3.65c-4.3,2.43-7.7,5.97-10.18,10.6-2.48,4.63-3.72,10.13-3.72,16.49s1.24,11.77,3.72,16.49c2.48,4.73,5.87,8.33,10.18,10.81,4.3,2.48,9.17,3.72,14.6,3.72s10.04-1.26,14.39-3.79c4.35-2.52,7.79-6.13,10.31-10.81,2.53-4.68,3.79-10.11,3.79-16.28s-1.26-11.6-3.79-16.28ZM2519.51,184.01c-3.32,3.28-8.02,4.91-14.11,4.91s-10.76-1.64-14.03-4.91c-3.28-3.27-4.91-7.39-4.91-12.35v-1.82h6.18c0,7.49,4.26,11.23,12.77,11.23s12.77-3.74,12.77-11.23h6.31v1.82c0,4.96-1.66,9.08-4.98,12.35Z"/>
          <path class="cls-1" d="M2607.08,268.99c-5.57-4.07-8.68-9.61-9.33-16.63h10.1c.47,4.3,2.5,7.79,6.11,10.46,3.6,2.67,8.44,4,14.53,4,5.33,0,9.52-1.26,12.56-3.79,3.04-2.52,4.56-5.66,4.56-9.4,0-2.62-.84-4.77-2.53-6.46-1.68-1.68-3.81-3.02-6.39-4-2.57-.98-6.06-2.04-10.46-3.16-5.71-1.5-10.34-2.99-13.9-4.49-3.56-1.5-6.57-3.72-9.05-6.67-2.48-2.95-3.72-6.9-3.72-11.86,0-3.74,1.12-7.2,3.37-10.39,2.24-3.18,5.43-5.71,9.54-7.58,4.12-1.87,8.79-2.81,14.04-2.81,8.23,0,14.88,2.08,19.93,6.25,5.05,4.16,7.76,9.89,8.14,17.19h-9.83c-.28-4.49-2.04-8.12-5.26-10.88-3.23-2.76-7.65-4.14-13.26-4.14-4.96,0-8.98,1.17-12.07,3.51s-4.63,5.24-4.63,8.7c0,3,.91,5.45,2.74,7.37,1.82,1.92,4.09,3.42,6.81,4.49,2.71,1.08,6.36,2.27,10.95,3.58,5.52,1.5,9.92,2.95,13.19,4.35,3.28,1.4,6.08,3.46,8.42,6.18,2.34,2.72,3.55,6.32,3.65,10.81,0,4.12-1.12,7.79-3.37,11.02-2.25,3.23-5.38,5.78-9.4,7.65-4.02,1.87-8.66,2.81-13.89,2.81-8.8,0-15.98-2.04-21.55-6.11ZM2634.66,290.68c0,5.24-1.08,9.05-3.23,11.44-2.15,2.39-5.29,3.58-9.4,3.58v-4.91c4.3,0,6.46-2.62,6.46-7.86v-1.97h-6.04v-9.68h11.09c.75,3.55,1.12,6.69,1.12,9.4Z"/>
          <path class="cls-1" d="M2673.68,180.78c-1.4-1.4-2.11-3.13-2.11-5.19s.7-3.77,2.11-5.12c1.4-1.35,3.09-2.04,5.05-2.04s3.65.68,5.05,2.04c1.4,1.36,2.11,3.07,2.11,5.12s-.7,3.79-2.11,5.19c-1.4,1.4-3.09,2.1-5.05,2.1s-3.65-.7-5.05-2.1ZM2683.65,197.34v76.63h-9.82v-76.63h9.82Z"/>
          <path class="cls-1" d="M2801.82,175.87v8.14h-27.23v89.97h-9.82v-89.97h-27.37v-8.14h64.42Z"/>
          <path class="cls-1" d="M2837.12,199.87c4.44-2.62,9.89-3.93,16.35-3.93v10.25h-2.67c-7.11,0-12.82,1.92-17.12,5.75-4.3,3.84-6.46,10.25-6.46,19.23v42.81h-9.82v-76.63h9.82v13.61c2.15-4.77,5.45-8.47,9.9-11.09Z"/>
          <path class="cls-1" d="M2868.42,214.81c3.13-5.94,7.48-10.53,13.05-13.75,5.57-3.23,11.86-4.84,18.88-4.84s13.59,1.68,18.88,5.05c5.29,3.37,9.1,7.67,11.44,12.91v-16.84h9.83v76.63h-9.83v-16.98c-2.43,5.24-6.29,9.57-11.58,12.98-5.29,3.42-11.58,5.12-18.88,5.12s-13.17-1.64-18.74-4.91c-5.57-3.27-9.92-7.91-13.05-13.89-3.14-5.99-4.7-12.91-4.7-20.77s1.57-14.76,4.7-20.7ZM2926.88,219.38c-2.53-4.68-5.96-8.28-10.31-10.81-4.35-2.52-9.15-3.79-14.39-3.79s-10.29,1.22-14.6,3.65c-4.3,2.43-7.7,5.97-10.18,10.6-2.48,4.63-3.72,10.13-3.72,16.49s1.24,11.77,3.72,16.49c2.48,4.73,5.87,8.33,10.18,10.81,4.3,2.48,9.17,3.72,14.6,3.72s10.04-1.26,14.39-3.79c4.35-2.52,7.79-6.13,10.31-10.81,2.53-4.68,3.79-10.11,3.79-16.28s-1.26-11.6-3.79-16.28Z"/>
          <path class="cls-1" d="M3021.34,204.43c5.8,5.66,8.7,13.87,8.7,24.63v44.91h-9.69v-43.79c0-8.33-2.08-14.69-6.24-19.09-4.17-4.4-9.85-6.6-17.05-6.6s-13.29,2.34-17.68,7.02c-4.4,4.68-6.6,11.56-6.6,20.63v41.83h-9.82v-76.63h9.82v13.05c2.43-4.68,5.94-8.26,10.53-10.74,4.58-2.48,9.78-3.72,15.58-3.72,9.17,0,16.65,2.83,22.46,8.49Z"/>
          <path class="cls-1" d="M3056.64,268.99c-5.57-4.07-8.68-9.61-9.33-16.63h10.1c.47,4.3,2.5,7.79,6.11,10.46,3.6,2.67,8.44,4,14.53,4,5.33,0,9.52-1.26,12.56-3.79,3.04-2.52,4.56-5.66,4.56-9.4,0-2.62-.84-4.77-2.53-6.46-1.68-1.68-3.81-3.02-6.39-4-2.57-.98-6.06-2.04-10.46-3.16-5.71-1.5-10.34-2.99-13.9-4.49-3.56-1.5-6.57-3.72-9.05-6.67-2.48-2.95-3.72-6.9-3.72-11.86,0-3.74,1.12-7.2,3.37-10.39,2.24-3.18,5.43-5.71,9.54-7.58,4.12-1.87,8.79-2.81,14.04-2.81,8.23,0,14.88,2.08,19.93,6.25,5.05,4.16,7.76,9.89,8.14,17.19h-9.83c-.28-4.49-2.04-8.12-5.26-10.88-3.23-2.76-7.65-4.14-13.26-4.14-4.96,0-8.98,1.17-12.07,3.51-3.09,2.34-4.63,5.24-4.63,8.7,0,3,.91,5.45,2.74,7.37,1.82,1.92,4.09,3.42,6.81,4.49,2.71,1.08,6.36,2.27,10.95,3.58,5.52,1.5,9.92,2.95,13.19,4.35,3.28,1.4,6.08,3.46,8.42,6.18,2.34,2.72,3.55,6.32,3.65,10.81,0,4.12-1.12,7.79-3.37,11.02-2.25,3.23-5.38,5.78-9.4,7.65-4.02,1.87-8.66,2.81-13.89,2.81-8.8,0-15.98-2.04-21.55-6.11Z"/>
          <path class="cls-1" d="M3144.64,201.34c5.29-3.42,11.58-5.12,18.88-5.12,6.92,0,13.17,1.61,18.74,4.84,5.57,3.23,9.92,7.81,13.05,13.75,3.13,5.94,4.7,12.84,4.7,20.7s-1.57,14.79-4.7,20.77c-3.14,5.99-7.49,10.62-13.05,13.89-5.57,3.28-11.81,4.91-18.74,4.91s-13.47-1.71-18.81-5.12c-5.33-3.41-9.22-7.69-11.65-12.84v53.05h-9.68v-112.85h9.68v16.84c2.43-5.14,6.29-9.43,11.58-12.84ZM3186.32,219.02c-2.48-4.63-5.87-8.16-10.17-10.6-4.31-2.43-9.17-3.65-14.6-3.65s-10.03,1.26-14.39,3.79c-4.35,2.53-7.79,6.13-10.32,10.81-2.53,4.68-3.79,10.11-3.79,16.28s1.26,11.6,3.79,16.28c2.53,4.68,5.97,8.28,10.32,10.81,4.35,2.53,9.15,3.79,14.39,3.79s10.29-1.24,14.6-3.72c4.3-2.48,7.69-6.08,10.17-10.81,2.48-4.72,3.72-10.22,3.72-16.49s-1.24-11.86-3.72-16.49Z"/>
          <path class="cls-1" d="M3232.22,270.25c-5.76-3.23-10.29-7.81-13.61-13.75-3.32-5.94-4.98-12.89-4.98-20.84s1.68-14.9,5.05-20.84c3.37-5.94,7.95-10.53,13.75-13.75,5.8-3.23,12.3-4.84,19.51-4.84s13.73,1.61,19.58,4.84c5.85,3.23,10.43,7.81,13.75,13.75,3.32,5.94,4.98,12.89,4.98,20.84s-1.68,14.79-5.05,20.77c-3.37,5.99-8,10.6-13.89,13.82-5.9,3.23-12.45,4.84-19.65,4.84s-13.68-1.61-19.44-4.84ZM3265.69,263.1c4.3-2.29,7.79-5.75,10.46-10.39,2.67-4.63,4-10.32,4-17.05s-1.31-12.42-3.93-17.05c-2.62-4.63-6.08-8.09-10.39-10.39-4.3-2.29-8.98-3.44-14.04-3.44s-9.73,1.15-14.03,3.44c-4.3,2.29-7.74,5.75-10.32,10.39-2.57,4.63-3.86,10.32-3.86,17.05s1.29,12.42,3.86,17.05c2.57,4.63,5.99,8.09,10.25,10.39,4.26,2.29,8.91,3.44,13.96,3.44s9.73-1.14,14.04-3.44Z"/>
          <path class="cls-1" d="M3327.94,199.87c4.44-2.62,9.89-3.93,16.35-3.93v10.25h-2.67c-7.11,0-12.82,1.92-17.12,5.75-4.3,3.84-6.46,10.25-6.46,19.23v42.81h-9.82v-76.63h9.82v13.61c2.15-4.77,5.45-8.47,9.9-11.09Z"/>
          <path class="cls-1" d="M3371.8,205.62v47.58c0,4.68.89,7.91,2.67,9.68,1.78,1.78,4.91,2.67,9.4,2.67h8.98v8.42h-10.53c-6.93,0-12.07-1.61-15.44-4.84-3.37-3.23-5.05-8.54-5.05-15.93v-47.58h-10.67v-8.28h10.67v-19.23h9.97v19.23h21.05v8.28h-21.05Z"/>
        </g>
      </g>
    </g>
  </g>
</svg>