<svg width="105" height="40" viewBox="0 0 105 40" fill="none" xmlns="http://www.w3.org/2000/svg">
<g clip-path="url(#clip0_241_2656)">
<path d="M7.85353 0.723298H17.6763L19.991 12.8173L24.4033 0.723298H32.1139L24.2803 22.2278H14.4575L12.1863 10.1338L7.8029 22.2278H0.0198975L7.85353 0.723298ZM80.1935 0.723298C82.9855 0.723298 85.7848 0.723298 88.5769 0.723298C83.6293 7.05241 78.689 13.3815 73.7414 19.7034C73.5172 20.0072 73.3219 20.2604 73.17 20.4412C73.17 20.4412 73.1266 20.4918 73.0832 20.5497C72.3888 21.3888 72.0344 21.8083 71.5714 22.0325C71.4268 22.1049 71.1881 22.1989 70.8626 22.2351H64.1646C64.1646 22.2351 64.1356 22.2351 64.1067 22.2351C63.4991 22.1844 63.0868 21.6853 62.9711 21.5334C62.7685 21.2947 62.5877 20.962 62.2767 19.3562C62.1682 18.8065 62.1175 18.5316 62.0814 18.2061C61.9223 16.9403 60.9675 10.17 59.6221 0.723298H66.6817C67.3834 5.58406 68.0922 10.4448 68.7939 15.3056L80.1863 0.723298H80.1935ZM96.9602 22.2278C96.6781 20.4123 96.3888 18.6039 96.1067 16.7884C94.8192 18.6039 93.5389 20.4123 92.2514 22.2278C86.4503 22.2278 80.6564 22.2278 74.8553 22.2351C74.9638 22.0976 75.0723 21.953 75.1808 21.8155C80.0344 15.6021 84.8951 9.38153 89.7487 3.16814C89.7631 3.14644 89.8644 3.01625 90.0742 2.75585C91.1157 1.43939 91.3255 1.19346 91.6944 0.990929C91.8897 0.88243 92.1935 0.759464 92.6203 0.716064H99.434C100.367 0.716064 100.577 0.79563 100.989 1.08496C101.278 1.28749 101.322 1.88785 101.322 1.88785C101.322 1.88785 101.626 4.03614 101.727 4.7667C102.544 10.5822 103.362 16.405 104.179 22.2206H96.953L96.9602 22.2278ZM87.2459 16.7884H96.1067L94.689 7.25494C92.208 10.4303 89.727 13.613 87.2459 16.7884ZM50.6383 0.723298H44.3382C36.6998 0.723298 30.5081 6.92221 30.5081 14.5533C30.5081 18.7992 33.9512 22.2423 38.1971 22.2423H44.5262C52.1573 22.2423 58.3418 16.0578 58.3418 8.42673C58.3418 4.17357 54.8987 0.723298 50.6383 0.723298ZM50.6817 10.1121C50.6817 13.5407 47.9042 16.3182 44.4756 16.3182H41.6329C39.7233 16.3182 38.1754 14.7703 38.1754 12.8607C38.1754 9.42493 40.9602 6.64735 44.3888 6.64735H47.2242C49.1338 6.64735 50.689 8.19527 50.689 10.1121H50.6817ZM37.8933 23.971H45.5027L47.2966 33.3381L50.7251 23.971H56.6998L50.6311 40.6365H43.0217L41.264 31.2694L37.8644 40.6365H31.8318L37.9006 23.971H37.8933ZM76.4756 23.971C75.9042 24.7016 75.3327 25.4249 74.7613 26.1555C74.2188 26.8499 73.6763 27.5515 73.1338 28.2459C69.7921 28.2387 66.4575 28.2314 63.1157 28.217L61.3219 33.1645L64.3165 30.264H71.5931L67.0868 34.5171H60.8228L60.1284 36.405H71.7378C71.1881 37.1067 70.6311 37.8155 70.0814 38.5171C69.5244 39.2332 68.9675 39.9421 68.4105 40.6582H52.5696L58.6456 23.9638H76.4756V23.971ZM86.0669 35.4141C86.0669 35.0307 86.0742 34.7558 85.8933 34.575C85.7342 34.4159 85.51 34.3942 85.3942 34.3942H79.4485C78.8192 34.3942 78.255 34.2423 77.7486 33.9385C77.2423 33.6347 76.8083 33.2441 76.4394 32.7739C76.0705 32.3038 75.7957 31.783 75.6076 31.2115C75.4195 30.6473 75.3255 30.0904 75.3255 29.5407C75.3255 29.0343 75.4702 28.4629 75.7667 27.8264C76.0633 27.1826 76.4394 26.575 76.9024 25.9964C77.3653 25.4177 77.8861 24.9331 78.4792 24.5497C79.0651 24.1591 79.6582 23.9638 80.2441 23.9638H95.9186C95.3472 24.6871 94.7685 25.4177 94.1971 26.1555C93.6474 26.8571 93.1121 27.5587 92.5769 28.2531C86.9638 28.2025 82.2044 28.2531 82.2044 28.2531C82.2044 28.2531 81.8282 28.2459 81.5895 28.4991C81.3508 28.745 81.3581 29.1139 81.3653 29.3164C81.3653 29.5841 81.3725 29.8662 81.5968 30.0832C81.8572 30.3363 82.2261 30.3074 82.2984 30.3001H88.2803C88.953 30.3001 89.5317 30.4665 90.0163 30.7848C90.5009 31.1103 90.8915 31.5226 91.1953 32.0144C91.4991 32.5063 91.7233 33.0416 91.8752 33.6058C92.0199 34.1699 92.0995 34.698 92.0995 35.1826V35.3707C92.0995 35.9204 91.9765 36.4991 91.7233 37.1211C91.4702 37.7432 91.1374 38.3146 90.7324 38.8354C90.3201 39.3634 89.8499 39.7974 89.3147 40.1446C88.7794 40.4918 88.2297 40.6654 87.6582 40.6654C82.2912 40.6654 76.9168 40.6654 71.5497 40.6654C72.1212 39.9349 72.6854 39.2115 73.2568 38.481C73.7704 37.8228 74.3345 37.1067 74.8481 36.4484C80.5986 36.4557 85.4159 36.4484 85.4159 36.4484C85.5244 36.4267 85.7848 36.3689 85.9512 36.1446C86.0814 35.9638 86.0886 35.783 86.0886 35.4285L86.0669 35.4141ZM29.9439 40.7016C31.9693 35.1247 33.9946 29.5479 36.0199 23.971H30.0741C28.0416 29.5479 26.0163 35.1247 23.9837 40.7016H29.9439ZM8.29476 40.6727L14.3996 23.9421H20.4394L15.8825 36.4123H23.7161C23.4485 37.0705 23.1881 37.7577 22.9277 38.4665C22.6528 39.2188 22.4069 39.9566 22.1754 40.6727H8.29476Z" fill="#F37021"/>
</g>
<defs>
<clipPath id="clip0_241_2656">
<rect width="104.159" height="40" fill="white" transform="translate(0.0198975)"/>
</clipPath>
</defs>
</svg>
