<svg width="131" height="50" viewBox="0 0 131 50" fill="none" xmlns="http://www.w3.org/2000/svg">
<g id="Logo" clip-path="url(#clip0_76_291)">
<path id="logo" d="M9.79204 0.90416H22.0705L24.9638 16.0217L30.4792 0.90416H40.1175L30.3255 27.7848H18.047L15.208 12.6673L9.72875 27.7848H0L9.79204 0.90416ZM100.217 0.90416C103.707 0.90416 107.206 0.90416 110.696 0.90416C104.512 8.81555 98.3363 16.7269 92.1519 24.6293C91.8716 25.009 91.6275 25.3255 91.4376 25.5515C91.4376 25.5515 91.3834 25.6148 91.3291 25.6872C90.4611 26.736 90.0181 27.2604 89.4394 27.5407C89.2586 27.6311 88.9602 27.7486 88.5533 27.7939H80.1808C80.1808 27.7939 80.1447 27.7939 80.1085 27.7939C79.349 27.7306 78.8336 27.1067 78.689 26.9168C78.4358 26.6184 78.2098 26.2025 77.821 24.1953C77.6853 23.5081 77.6221 23.1646 77.5769 22.7577C77.3779 21.1754 76.1844 12.7125 74.5027 0.90416H83.3273C84.2043 6.98011 85.0904 13.0561 85.9675 19.132L100.208 0.90416H100.217ZM121.175 27.7848C120.823 25.5154 120.461 23.255 120.108 20.9855C118.499 23.255 116.899 25.5154 115.289 27.7848C108.038 27.7848 100.796 27.7848 93.5443 27.7939C93.6799 27.6221 93.8156 27.4412 93.9512 27.2694C100.018 19.5027 106.094 11.7269 112.161 3.96022C112.179 3.93309 112.306 3.77034 112.568 3.44485C113.87 1.79928 114.132 1.49186 114.593 1.2387C114.837 1.10308 115.217 0.949368 115.75 0.895119H124.268C125.434 0.895119 125.696 0.994576 126.212 1.35624C126.573 1.6094 126.627 2.35986 126.627 2.35986C126.627 2.35986 127.007 5.04521 127.134 5.95841C128.156 13.2278 129.177 20.5063 130.199 27.7758H121.166L121.175 27.7848ZM109.033 20.9855H120.108L118.336 9.06872C115.235 13.038 112.134 17.0163 109.033 20.9855ZM63.2731 0.90416H55.3978C45.8499 0.90416 38.1103 8.6528 38.1103 18.1917C38.1103 23.4991 42.4141 27.8029 47.7215 27.8029H55.6329C65.1718 27.8029 72.9024 20.0723 72.9024 10.5335C72.9024 5.217 68.5986 0.90416 63.2731 0.90416ZM63.3273 12.6401C63.3273 16.9259 59.8553 20.3978 55.5696 20.3978H52.0163C49.6293 20.3978 47.6944 18.4629 47.6944 16.076C47.6944 11.7812 51.1754 8.30922 55.4611 8.30922H59.0054C61.3924 8.30922 63.3363 10.2441 63.3363 12.6401H63.3273ZM47.3418 29.9638H56.8535L59.0958 41.6727L63.3816 29.9638H70.8499L63.264 50.7957H53.7523L51.5552 39.0868L47.3056 50.7957H39.7649L47.3508 29.9638H47.3418ZM95.5696 29.9638C94.8553 30.877 94.1411 31.7812 93.4268 32.6944C92.7486 33.5624 92.0705 34.4394 91.3924 35.3074C87.2152 35.2984 83.047 35.2893 78.8698 35.2712L76.6275 41.4557L80.3707 37.83H89.4665L83.8336 43.1465H76.0036L75.1356 45.5063H89.6474C88.9602 46.3834 88.264 47.2694 87.5769 48.1465C86.8807 49.0416 86.1844 49.9277 85.4883 50.8228H65.6872L73.2821 29.9548H95.5696V29.9638ZM107.559 44.2676C107.559 43.7884 107.568 43.4448 107.342 43.2188C107.143 43.0199 106.863 42.9928 106.718 42.9928H99.2857C98.4991 42.9928 97.7939 42.8029 97.1609 42.4231C96.528 42.0434 95.9855 41.5552 95.5244 40.9674C95.0633 40.3797 94.7197 39.7288 94.4846 39.0145C94.2495 38.3092 94.132 37.613 94.132 36.9259C94.132 36.2929 94.3128 35.5787 94.6835 34.783C95.0543 33.9783 95.5244 33.2188 96.1031 32.4955C96.6817 31.7722 97.3327 31.1664 98.0741 30.6872C98.8065 30.1989 99.5479 29.9548 100.28 29.9548H119.873C119.159 30.859 118.436 31.7722 117.722 32.6944C117.034 33.5714 116.365 34.4485 115.696 35.3165C108.68 35.2532 102.731 35.3165 102.731 35.3165C102.731 35.3165 102.26 35.3074 101.962 35.6239C101.664 35.9313 101.673 36.3924 101.682 36.6456C101.682 36.9801 101.691 37.3327 101.971 37.604C102.297 37.9204 102.758 37.8843 102.848 37.8752H110.325C111.166 37.8752 111.89 38.0832 112.495 38.481C113.101 38.8879 113.59 39.4033 113.969 40.0181C114.349 40.6329 114.629 41.302 114.819 42.0072C115 42.7125 115.099 43.3725 115.099 43.9783V44.2134C115.099 44.9005 114.946 45.6239 114.629 46.4014C114.313 47.179 113.897 47.8933 113.391 48.5443C112.875 49.2043 112.288 49.7468 111.618 50.1808C110.949 50.6148 110.262 50.8318 109.548 50.8318C102.839 50.8318 96.1212 50.8318 89.4123 50.8318C90.1266 49.9186 90.8318 49.0145 91.5461 48.1013C92.1881 47.2785 92.8933 46.3834 93.5353 45.5606C100.723 45.5696 106.745 45.5606 106.745 45.5606C106.881 45.5335 107.206 45.4611 107.414 45.1808C107.577 44.9548 107.586 44.7288 107.586 44.2857L107.559 44.2676ZM37.4051 50.877C39.9367 43.906 42.4684 36.9349 45 29.9638H37.5678C35.0271 36.9349 32.4955 43.906 29.9548 50.877H37.4051ZM10.3436 50.8409L17.9747 29.9277H25.5244L19.8282 45.5154H29.6203C29.2857 46.3382 28.9602 47.1971 28.6347 48.0832C28.2911 49.0235 27.9837 49.9458 27.6944 50.8409H10.3436Z" fill="#8F00FF"/>
</g>
<defs>
<clipPath id="clip0_76_291">
<rect width="130.199" height="50" fill="white"/>
</clipPath>
</defs>
</svg>
