<svg width="147" height="40" viewBox="0 0 147 40" fill="none" xmlns="http://www.w3.org/2000/svg">
<path d="M86.7636 13.1636H80.3636V0.290894H82.1091V11.6363H86.7636V13.1636ZM97.3091 8.14544C97.3091 9.23635 97.0909 10.1818 96.5818 10.9818C96.1455 11.7818 95.4909 12.3636 94.7636 12.7273C93.9636 13.1636 93.1636 13.3091 92.2182 13.3091C90.6182 13.3091 89.3818 12.8 88.6546 11.9273C87.8546 10.9818 87.4909 9.81817 87.4909 8.29089C87.4909 7.19998 87.7091 6.25453 88.2182 5.45453C88.6546 4.65453 89.3091 4.07271 90.0364 3.70908C90.7636 3.34544 91.6364 3.12726 92.5818 3.05453C94.0364 3.05453 95.2 3.49089 96.0727 4.36362C96.9455 5.23635 97.3091 6.47271 97.3091 8.14544ZM95.4182 8.29089C95.4182 7.05453 95.1273 6.1818 94.6182 5.52726C94.1091 4.87271 93.3091 4.5818 92.3636 4.5818C91.4909 4.5818 90.8364 4.87271 90.2546 5.52726C89.6727 6.10908 89.3818 7.05453 89.3091 8.21817C89.3091 9.23635 89.5273 10.1091 89.9636 10.8363C90.4 11.4909 91.2 11.8545 92.2909 11.9273C93.1636 11.9273 93.8909 11.6363 94.4727 11.0545C95.0545 10.4727 95.4182 9.45453 95.4182 8.29089ZM107.491 12.7273V8.07271H105.745V11.5636C105.527 11.6363 105.236 11.7091 104.945 11.7091C104.655 11.7818 104.364 11.7818 104.073 11.7818C103.055 11.7818 102.182 11.4909 101.527 10.8363C100.873 10.2545 100.582 9.30908 100.582 8.21817C100.582 6.9818 100.945 6.10908 101.673 5.45453C102.4 4.79998 103.2 4.50908 104.218 4.50908C104.655 4.50908 105.164 4.5818 105.6 4.65453C106.036 4.72726 106.473 4.87271 106.909 5.01817L107.2 3.49089C106.255 3.19998 105.236 3.05453 104.218 3.05453C103.055 3.05453 102.109 3.27271 101.236 3.7818C100.436 4.21817 99.7818 4.87271 99.3455 5.67271C98.9091 6.47271 98.6909 7.34544 98.6909 8.36362C98.6909 9.96362 99.2 11.2 100.145 12C101.091 12.8 102.327 13.2363 103.782 13.2363C105.164 13.3818 106.4 13.1636 107.491 12.7273ZM112.509 13.1636V3.27271H110.764V13.1636H112.509ZM121.745 10.1091C121.745 9.30908 121.455 8.79998 121.018 8.36362C120.582 7.99998 120 7.70908 119.418 7.49089C118.836 7.27271 118.255 7.12726 117.818 6.90908C117.382 6.69089 117.091 6.32726 117.091 5.89089C117.091 5.45453 117.236 5.09089 117.6 4.87271C117.964 4.65453 118.473 4.50908 119.127 4.50908C119.418 4.50908 119.782 4.50908 120.145 4.5818C120.509 4.65453 120.8 4.72726 121.091 4.79998L121.164 3.27271C120.873 3.19998 120.509 3.19998 120.218 3.12726C119.927 3.12726 119.564 3.05453 119.273 3.05453C118.036 3.05453 117.018 3.34544 116.364 3.85453C115.709 4.36362 115.345 5.09089 115.345 6.03635C115.345 6.83635 115.636 7.41817 116.073 7.7818C116.582 8.14544 117.091 8.43635 117.673 8.5818C118.255 8.72726 118.764 8.94544 119.273 9.16362C119.709 9.3818 120 9.74544 120 10.1818C120 10.7636 119.782 11.1273 119.345 11.4182C118.909 11.6363 118.473 11.7818 117.891 11.7818C117.455 11.7818 117.018 11.7818 116.655 11.7091C116.291 11.6363 115.927 11.5636 115.636 11.4182L115.564 13.0182C115.855 13.0909 116.218 13.1636 116.582 13.1636C116.945 13.2363 117.309 13.2363 117.745 13.2363C118.982 13.2363 119.927 12.9454 120.727 12.3636C121.309 11.9273 121.745 11.1273 121.745 10.1091ZM130.255 4.72726V3.27271H122.764V4.72726H125.6V13.2363H127.345V4.72726H130.255ZM133.964 13.1636V3.27271H132.218V13.1636H133.964ZM145.527 13.1636L141.018 7.99998L145.309 3.19998H143.127L139.127 7.7818V3.27271H137.455V13.1636H139.2V8.36362L143.2 13.1636H145.527ZM75.2 18.1091H76.2909V34.4727H75.2V18.1091ZM74.6182 34.4727H74.1818V18.1091H74.6182V34.4727ZM77.3091 34.4727H76.8727V18.1091H77.3091V34.4727ZM78.3273 34.4727H77.8909V18.1091H78.3273V34.4727ZM79.5636 18.1091H80.6546V34.4727H79.5636V18.1091ZM76.8727 39.3454H78.6909V39.8545H76.3636V36.2909H76.8727V39.3454ZM83.4182 18.1091H84.5091V34.4727H83.4182V18.1091ZM85.5273 34.4727H85.0909V18.1091H85.5273V34.4727ZM89.8909 34.4727H89.4546V18.1091H89.8909V34.4727ZM88.2182 34.4727H87.7818V18.1091H88.2182V34.4727ZM86.1091 18.1091H87.2V34.4727H86.1091V18.1091ZM86.6909 36.2182C87.1273 36.2182 87.4909 36.4363 87.6364 36.8727C87.8546 37.2363 87.9273 37.6727 87.9273 38.0363C87.9273 38.4727 87.8546 38.9091 87.6364 39.2727C87.4182 39.6363 87.1273 39.8545 86.6909 39.9273C86.2545 39.9273 85.9636 39.7091 85.7455 39.2727C85.5273 38.9091 85.4546 38.4727 85.4546 38.0363C85.4546 37.6727 85.5273 37.2363 85.7455 36.8727C85.9636 36.4363 86.2545 36.2182 86.6909 36.2182ZM86.6909 36.7273C86.4 36.7273 86.1818 36.9454 86.1091 37.2363C86.0364 37.5273 85.9636 37.8182 85.9636 38.1091C85.9636 38.3273 85.9636 38.6182 86.1091 38.9091C86.2546 39.2 86.4 39.3454 86.6909 39.4182C86.9818 39.4182 87.2 39.2 87.2727 38.9091C87.3455 38.6182 87.4182 38.3273 87.4182 38.1091C87.4182 37.8182 87.4182 37.5273 87.2727 37.2363C87.2 36.9454 86.9818 36.7273 86.6909 36.7273ZM96.2909 18.1091H97.3818V34.4727H96.2909V18.1091ZM93.0909 34.4727H92.6546V18.1091H93.0909V34.4727ZM94.1091 34.4727H93.6727V18.1091H94.1091V34.4727ZM95.0546 34.4727H94.6182V18.1091H95.0546V34.4727ZM98.0364 18.1091H99.1273V34.4727H98.0364V18.1091ZM96.5091 38.4H95.7818V37.8909H97.0182V39.6363C96.8727 39.7091 96.7273 39.7818 96.5091 39.7818C96.2909 39.7818 96.1455 39.8545 96 39.8545C95.4909 39.8545 95.1273 39.6363 94.9091 39.2727C94.6909 38.9091 94.6182 38.4727 94.6182 38.0363C94.6182 37.5273 94.6909 37.1636 94.9091 36.8C95.1273 36.4363 95.4909 36.2909 96.0727 36.2182C96.3636 36.2182 96.5818 36.2909 96.7273 36.4363C96.8727 36.5818 97.0182 36.7273 97.0182 36.9454V37.0182H96.4364C96.4364 36.9454 96.3636 36.8727 96.2909 36.8C96.2182 36.7273 96.1455 36.7273 96 36.7273C95.6364 36.7273 95.4182 36.8727 95.2727 37.0909C95.1273 37.3091 95.1273 37.6 95.1273 37.9636C95.1273 38.3273 95.1273 38.6182 95.2727 38.9091C95.3455 39.2 95.6364 39.3454 96 39.3454H96.2182C96.2909 39.3454 96.3636 39.2727 96.4364 39.2727L96.5091 38.4ZM102.836 18.1091H103.927V34.4727H102.836V18.1091ZM102.327 34.4727H101.891V18.1091H102.327V34.4727ZM104.945 34.4727H104.509V18.1091H104.945V34.4727ZM108.364 34.4727H107.927V18.1091H108.364V34.4727ZM106.255 18.1091H107.345V34.4727H106.255V18.1091ZM105.382 36.8V39.3454H106.036V39.8545H104.218V39.3454H104.873V36.8H104.291V36.2909H105.891V36.8H105.382ZM112.073 18.1091H113.164V34.4727H112.073V18.1091ZM111.491 34.4727H111.055V18.1091H111.491V34.4727ZM114.182 34.4727H113.745V18.1091H114.182V34.4727ZM117.6 34.4727H117.164V18.1091H117.6V34.4727ZM114.764 18.1091H115.855V34.4727H114.764V18.1091ZM114.4 39.8545C114.109 39.8545 113.891 39.7818 113.673 39.6363C113.455 39.4909 113.309 39.2727 113.309 38.9818V38.8363H113.891C113.891 38.9818 113.964 39.1273 114.036 39.2C114.182 39.2727 114.327 39.3454 114.473 39.3454C114.618 39.3454 114.764 39.2727 114.909 39.2C115.055 39.1273 115.055 38.9818 115.055 38.8363C115.055 38.6909 114.982 38.4727 114.836 38.4C114.691 38.2545 114.473 38.1818 114.255 38.1091C114.036 38.0364 113.891 37.8909 113.673 37.7454C113.527 37.6 113.455 37.3818 113.382 37.1636C113.382 36.8727 113.527 36.5818 113.673 36.4363C113.891 36.2909 114.109 36.1454 114.473 36.1454C114.691 36.1454 114.982 36.2182 115.2 36.3636C115.418 36.5091 115.491 36.7273 115.564 37.0182V37.0909H115.055C115.055 36.9454 115.055 36.8727 114.909 36.8C114.836 36.7273 114.691 36.6545 114.545 36.6545C114.4 36.6545 114.255 36.6545 114.182 36.7273C114.109 36.8 114.036 36.8727 114.036 37.0909C114.036 37.2363 114.109 37.3091 114.182 37.3818C114.255 37.4545 114.327 37.5273 114.473 37.5273L114.764 37.6727C114.982 37.7454 115.2 37.8909 115.418 38.0363C115.564 38.1818 115.709 38.4 115.709 38.7636C115.709 39.0545 115.564 39.3454 115.345 39.4909C114.982 39.7818 114.691 39.8545 114.4 39.8545ZM122.327 18.1091H123.418V34.4727H122.327V18.1091ZM120.727 34.4727H120.291V18.1091H120.727V34.4727ZM121.745 34.4727H121.309V18.1091H121.745V34.4727ZM126.764 34.4727H126.327V18.1091H126.764V34.4727ZM124 18.1091H125.091V34.4727H124V18.1091ZM123.855 36.8V39.8545H123.345V36.8H122.4V36.2909H124.873V36.8H123.855ZM130.545 18.1091H131.636V34.4727H130.545V18.1091ZM129.964 34.4727H129.527V18.1091H129.964V34.4727ZM132.655 34.4727H132.218V18.1091H132.655V34.4727ZM136 34.4727H135.564V18.1091H136V34.4727ZM133.891 18.1091H134.982V34.4727H133.891V18.1091ZM133.091 36.8V39.3454H133.745V39.8545H131.927V39.3454H132.582V36.8H132V36.2909H133.6V36.8H133.091ZM138.764 18.1091H139.855V34.4727H138.764V18.1091ZM140.873 34.4727H140.436V18.1091H140.873V34.4727ZM141.891 34.4727H141.455V18.1091H141.891V34.4727ZM142.909 34.4727H142.473V18.1091H142.909V34.4727ZM144.145 18.1091H145.236V34.4727H144.145V18.1091ZM141.382 37.7454L142.836 36.2909H143.564L141.818 37.9636L143.636 39.8545H142.909L141.382 38.2545V39.8545H140.8V36.2909H141.382V37.7454Z" fill="#E2000F"/>
<path d="M7.70912 9.38187C7.70912 10.5455 7.27275 11.491 6.40003 12.2182C5.5273 12.9455 4.43639 13.3091 2.90912 13.3819C2.47275 13.3819 1.96366 13.3819 1.5273 13.3091C1.09094 13.2364 0.727299 13.1637 0.290936 13.091L0.363663 11.4182C0.727299 11.5637 1.16366 11.6364 1.60003 11.7819C2.03639 11.8546 2.54548 11.9273 2.98184 11.9273C3.78184 11.9273 4.43639 11.7819 4.94548 11.4182C5.45457 11.0546 5.74548 10.4728 5.74548 9.74551C5.74548 9.01824 5.38184 8.50914 4.87275 8.21824C4.36366 7.92733 3.63639 7.56369 2.90912 7.27278C2.25457 6.90914 1.60003 6.54551 0.945481 6.03642C0.43639 5.52733 0.0727539 4.80005 0.0727539 3.78187C0.0727539 2.69096 0.509117 1.81824 1.30912 1.16369C2.10912 0.509144 3.20003 0.145508 4.65457 0.145508C5.45457 0.145508 6.18185 0.218235 6.98184 0.36369L6.90912 1.96369C6.47275 1.81824 6.10912 1.74551 5.74548 1.67278C5.30912 1.60005 4.94548 1.60005 4.58185 1.60005C3.70912 1.60005 3.05457 1.81824 2.61821 2.18187C2.18184 2.54551 1.96366 3.0546 1.96366 3.63642C1.96366 4.29096 2.3273 4.80005 2.90912 5.16369C3.49094 5.52733 4.14548 5.81823 4.94548 6.10914C5.67275 6.40005 6.40003 6.76369 6.98184 7.27278C7.34548 7.70914 7.70912 8.43642 7.70912 9.38187ZM16.9455 12.8728L16.8 11.3455C16.4364 11.491 16.1455 11.6364 15.7818 11.7091C15.4182 11.7819 14.9818 11.8546 14.6182 11.8546C13.5273 11.8546 12.7273 11.5637 12.1455 10.9819C11.5637 10.4001 11.2728 9.52733 11.2728 8.36369C11.2728 7.27278 11.5637 6.40005 12.0728 5.74551C12.5818 5.09096 13.4546 4.72733 14.4728 4.72733C14.8364 4.72733 15.2 4.72733 15.5637 4.80005C15.9273 4.87278 16.2909 4.94551 16.6546 5.09096L16.8 3.56369L15.7091 3.34551C15.3455 3.27278 14.9818 3.27278 14.6182 3.27278C13.3818 3.27278 12.4364 3.56369 11.6364 4.00005C10.8364 4.43642 10.3273 5.01824 9.96366 5.81824C9.60003 6.61824 9.38184 7.49096 9.38184 8.43642C9.38184 9.96369 9.81821 11.1273 10.6182 12.0001C11.4182 12.8728 12.6546 13.3091 14.2546 13.3091C14.7637 13.3091 15.2 13.2364 15.7091 13.1637C16.1455 13.091 16.5818 13.0182 16.9455 12.8728ZM27.9273 13.1637V3.27278H26.1818V7.34551H21.1637V3.27278H19.4182V13.1637H21.1637V8.80005H26.1818V13.1637H27.9273ZM45.8182 3.27278H44L42.1818 9.16369C41.9637 9.89096 41.7455 10.5455 41.6 11.2728C41.5273 10.9091 41.3818 10.5455 41.3091 10.1819C41.2364 9.81824 41.0909 9.4546 41.0182 9.16369L38.9818 3.27278H37.0182L35.0546 9.23642C34.9091 9.60005 34.8364 9.89096 34.7637 10.2546C34.6909 10.6182 34.6182 10.9091 34.5455 11.2728H34.4728C34.4 10.9819 34.3273 10.6182 34.2546 10.3273C34.1818 9.96369 34.0364 9.67278 33.9637 9.23642L32 3.27278H30.0364L33.1637 13.1637H35.2728L37.1637 7.49096C37.3818 6.76369 37.6 5.96369 37.8182 5.16369C37.8909 5.52733 38.0364 5.96369 38.1091 6.32733C38.2546 6.69096 38.3273 7.0546 38.4728 7.41824L40.4364 13.091H42.6182C42.6182 13.1637 45.8182 3.27278 45.8182 3.27278ZM55.8546 13.1637H53.8909L53.0909 11.0546H48.7273L47.9273 13.1637H46.1818L50.0364 3.27278H52L55.8546 13.1637ZM52.7273 9.81824L51.4909 6.69096C51.4182 6.40005 51.2728 6.10914 51.2 5.81824C51.1273 5.60005 50.9818 5.30914 50.9091 5.09096C50.8364 5.30914 50.7637 5.60005 50.6909 5.89096C50.6182 6.18187 50.4728 6.47278 50.4 6.69096L49.1637 9.81824H52.7273ZM65.0182 13.1637H62.8364L59.6364 8.94551H59.5637V13.2364H57.8182V3.27278C58.2546 3.27278 58.6909 3.27278 59.1273 3.20005H60.8C61.9637 3.20005 62.8364 3.41824 63.4909 3.8546C64.1455 4.29096 64.4364 4.94551 64.4364 5.81824C64.4364 6.69096 64.1455 7.34551 63.5637 7.78187C62.9818 8.29096 62.3273 8.58187 61.4546 8.6546C61.6 8.80005 61.7455 8.94551 61.8909 9.16369C62.0364 9.30914 62.1818 9.52733 62.3273 9.74551L65.0182 13.1637ZM62.6182 6.03642C62.6182 5.52733 62.4 5.16369 62.0364 4.87278C61.6728 4.6546 61.1637 4.50914 60.5091 4.50914H59.9273C59.7818 4.50914 59.6364 4.50914 59.4909 4.58187V7.70914H60.5818C61.1637 7.70914 61.6728 7.56369 62.0364 7.27278C62.4728 6.98187 62.6182 6.54551 62.6182 6.03642ZM73.8182 13.1637V11.5637H68.6546C68.7273 11.491 68.8 11.3455 68.9455 11.2001L69.2364 10.7637L73.7455 4.50914V3.27278H66.6909V4.80005H69.5273C70.2546 4.80005 70.9818 4.80005 71.6364 4.72733C71.4909 4.87278 71.3455 5.09096 71.2728 5.23642L70.9091 5.81824L66.6182 11.8546V13.1637H73.8182ZM1.38184 18.1091H2.47275V34.4728H1.38184V18.1091ZM0.800027 34.4728H0.363663V18.1091H0.800027V34.4728ZM3.49094 34.4728H3.05457V18.1091H3.49094V34.4728ZM6.83639 34.4728H6.40003V18.1091H6.83639V34.4728ZM4.07275 18.1091H5.16366V34.4728H4.07275V18.1091ZM3.70912 39.8546C3.41821 39.8546 3.20003 39.7819 2.98184 39.6364C2.76366 39.491 2.61821 39.2728 2.61821 38.9819V38.8364H3.1273C3.1273 38.9819 3.20003 39.1273 3.27275 39.2001C3.34548 39.2728 3.49094 39.3455 3.70912 39.3455C3.85457 39.3455 4.00003 39.2728 4.14548 39.2001C4.29094 39.1273 4.29094 38.9819 4.29094 38.8364C4.29094 38.691 4.21821 38.4728 4.07275 38.4001C3.9273 38.2546 3.70912 38.1819 3.49094 38.1091C3.27275 38.1091 3.05457 37.9637 2.90912 37.8182C2.76366 37.6728 2.69094 37.4546 2.61821 37.2364C2.61821 36.9455 2.76366 36.6546 2.90912 36.5091C3.1273 36.3637 3.34548 36.2182 3.70912 36.2182C3.9273 36.2182 4.21821 36.291 4.43639 36.4364C4.65457 36.5819 4.7273 36.8001 4.80003 37.091V37.1637H4.21821C4.21821 37.0182 4.21821 36.9455 4.07275 36.8728C4.00003 36.8001 3.85457 36.7273 3.70912 36.7273C3.56366 36.7273 3.41821 36.7273 3.34548 36.8001C3.27275 36.8728 3.20003 36.9455 3.20003 37.1637C3.20003 37.3091 3.27275 37.3819 3.34548 37.4546C3.41821 37.5273 3.49094 37.6001 3.63639 37.6001L3.9273 37.8182C4.14548 37.891 4.36366 38.0364 4.58185 38.1819C4.80003 38.3273 4.87275 38.5455 4.87275 38.9091C4.87275 39.2001 4.7273 39.491 4.50912 39.6364C4.21821 39.7819 3.9273 39.8546 3.70912 39.8546ZM11.2728 18.1091H12.3637V34.4728H11.2728V18.1091ZM16.0728 34.4728H15.6364V18.1091H16.0728V34.4728ZM13.3818 34.4728H12.9455V18.1091H13.3818V34.4728ZM15.0546 34.4728H14.6182V18.1091H15.0546V34.4728ZM9.60003 18.1091H10.6909V34.4728H9.60003V18.1091ZM13.8182 37.091H13.3091C13.3091 37.0182 13.2364 36.8728 13.1637 36.8001C13.0909 36.7273 12.9455 36.7273 12.8728 36.7273C12.5818 36.7273 12.4364 36.9455 12.3637 37.2364C12.2909 37.5273 12.2182 37.7455 12.2182 38.0364C12.2182 38.2546 12.2182 38.5455 12.3637 38.8364C12.4364 39.1273 12.6546 39.3455 12.8728 39.3455C13.0182 39.3455 13.0909 39.2728 13.1637 39.2001C13.2364 39.1273 13.3091 39.0546 13.3091 38.9091H13.8182C13.8182 39.2001 13.7455 39.4182 13.5273 39.5637C13.3091 39.7091 13.0909 39.7819 12.8728 39.7819C12.4364 39.7819 12.0728 39.5637 11.9273 39.2001C11.7818 38.8364 11.6364 38.4001 11.7091 37.9637C11.7091 37.5273 11.7818 37.091 11.9273 36.7273C12.0728 36.3637 12.4364 36.1455 12.8728 36.1455C13.1637 36.1455 13.3818 36.2182 13.5273 36.3637C13.7455 36.5819 13.8182 36.8001 13.8182 37.091ZM18.8364 18.1091H19.9273V34.4728H18.8364V18.1091ZM20.9455 34.4728H20.5091V18.1091H20.9455V34.4728ZM25.3091 34.4728H24.8728V18.1091H25.3091V34.4728ZM21.9637 34.4728H21.5273V18.1091H21.9637V34.4728ZM23.2 18.1091H24.2909V34.4728H23.2V18.1091ZM22.6182 38.2546H21.4546V39.8546H20.9455V36.291H21.4546V37.7455H22.6182V36.291H23.1273V39.8546H22.6182V38.2546ZM30.4 18.1091H31.4909V34.4728H30.4V18.1091ZM34.5455 34.4728H34.1091V18.1091H34.5455V34.4728ZM32.5091 34.4728H32.0728V18.1091H32.5091V34.4728ZM33.5273 34.4728H33.0909V18.1091H33.5273V34.4728ZM28.0728 18.1091H29.1637V34.4728H28.0728V18.1091ZM31.1273 37.6728H31.5637L31.9273 38.9091C32 38.4728 32 38.1091 32.0728 37.6728C32.1455 37.2364 32.1455 36.8728 32.1455 36.5819V36.291H32.7273V37.3819C32.7273 37.7455 32.6546 38.0364 32.6546 38.2546L32.3637 39.7819H31.7818L31.4909 38.5455L31.2 39.7819H30.6182L30.3273 38.2546C30.2546 37.9637 30.2546 37.6728 30.2546 37.3819V36.291H30.5455V36.5819C30.5455 36.9455 30.5455 37.3091 30.6182 37.6728C30.6909 38.0364 30.6909 38.4728 30.7637 38.9091C30.6909 38.9819 31.1273 37.6728 31.1273 37.6728ZM37.2364 18.1091H38.3273V34.4728H37.2364V18.1091ZM39.4182 34.4728H38.9818V18.1091H39.4182V34.4728ZM40.3637 34.4728H39.9273V18.1091H40.3637V34.4728ZM42.0364 34.4728H41.6V18.1091H42.0364V34.4728ZM42.6182 18.1091H43.7091V34.4728H42.6182V18.1091ZM41.0182 38.8364H40L39.7091 39.8546H39.1273L40.1455 36.291H40.8L41.7455 39.8546H41.1637L41.0182 38.8364ZM40.9455 38.3273L40.5818 36.8001L40.2182 38.3273H40.9455ZM46.4728 18.1091H47.5637V34.4728H46.4728V18.1091ZM48.5818 34.4728H48.1455V18.1091H48.5818V34.4728ZM52.9455 34.4728H52.5091V18.1091H52.9455V34.4728ZM49.6 34.4728H49.1637V18.1091H49.6V34.4728ZM50.1818 18.1091H51.2728V34.4728H50.1818V18.1091ZM49.1637 38.4001V39.8546H48.6546V36.291H49.6728C50.0364 36.291 50.2546 36.3637 50.4728 36.5819C50.6909 36.7273 50.7637 37.0182 50.8364 37.3819C50.8364 37.6001 50.7637 37.8182 50.6182 37.9637C50.4728 38.1091 50.3273 38.2546 50.1091 38.3273L51.0546 39.9273H50.4L49.6 38.4728L49.1637 38.4001ZM49.1637 37.891H49.6C49.8182 37.891 49.9637 37.891 50.1091 37.7455C50.2546 37.6728 50.3273 37.5273 50.3273 37.3091C50.3273 37.091 50.2546 36.9455 50.1091 36.8728C49.9637 36.8001 49.8182 36.8001 49.6 36.8001H49.2364L49.1637 37.891ZM57.3818 18.1091H58.4728V34.4728H57.3818V18.1091ZM56.1455 34.4728H55.7091V18.1091H56.1455V34.4728ZM62.1818 34.4728H61.7455V18.1091H62.1818V34.4728ZM61.1637 34.4728H60.7273V18.1091H61.1637V34.4728ZM59.0546 18.1091H60.1455V34.4728H59.0546V18.1091ZM58.6182 39.3455H60.1455V39.8546H58.0364V39.491L59.4182 36.8001H58.0364V36.291H59.9273V36.7273L58.6182 39.3455ZM66.6182 18.1091H67.7091V34.4728H66.6182V18.1091ZM65.3819 34.4728H64.9455V18.1091H65.3819V34.4728ZM71.4182 34.4728H70.9818V18.1091H71.4182V34.4728ZM70.4 34.4728H69.3091V18.1091H70.4V34.4728ZM68.2909 18.1091H68.7273V34.4728H68.2909V18.1091Z" fill="black"/>
</svg>
