<svg width="193" height="40" viewBox="0 0 193 40" fill="none" xmlns="http://www.w3.org/2000/svg">
<path d="M64.8522 8.27845C64.2327 10.0392 63.6947 11.5228 63.6621 11.5717C63.6458 11.6369 64.2653 11.6696 65.0316 11.6369C65.8141 11.6044 66.4989 11.6369 66.5641 11.7185C66.6456 11.7837 64.7056 17.343 62.26 24.0764L57.8256 36.3038L64.9827 36.3527C68.928 36.369 72.1887 36.3527 72.2213 36.32C72.2866 36.2711 83.5358 5.08301 83.5358 5.08301H74.7647H65.9935L64.8522 8.27845Z" fill="black"/>
<path d="M10.9695 16.2843C10.4967 17.6211 9.94239 19.1537 9.73045 19.7079L9.35547 20.735L13.0727 20.7677L16.7898 20.8166L15.6811 23.8327C13.6107 29.441 12.7629 32.0332 12.7629 32.7995C12.7791 34.0875 13.7737 35.7178 14.8333 36.1579C15.2572 36.3536 18.0126 36.3862 30.0769 36.3862C39.0763 36.3862 45.239 36.321 45.94 36.2231C47.2117 36.0276 48.5975 35.4569 49.1681 34.8862C49.5593 34.4787 50.668 31.8539 51.9559 28.1857L52.6896 26.1151L45.5813 26.1477L38.4731 26.1967L37.9514 27.5661C37.071 29.8812 36.9732 29.9301 32.4736 29.8323C29.2618 29.7834 28.9194 29.6693 28.577 28.6585C28.3977 28.1041 28.5281 27.7291 31.0062 21.0937C32.4572 17.2461 33.631 14.067 33.631 14.0018C33.631 13.9366 28.7238 13.8877 22.7241 13.8877H11.8172L10.9695 16.2843Z" fill="black"/>
<path d="M42.467 15.1801C42.467 14.791 42.63 14.4791 42.8582 14.2182C43.503 13.4152 43.4159 12.7381 42.8663 12.1418C42.4199 11.6573 41.2279 11.7402 41.2279 11.7402C41.2279 11.7402 40.7877 11.7564 40.5758 11.7564C28.3157 11.7564 16.0719 11.7564 3.81187 11.7564C3.58362 11.7564 3.33908 11.7402 3.14343 11.7239C3.42059 10.8435 3.68144 10.0283 3.9586 9.21317C4.36618 8.03933 4.75746 6.8492 5.23026 5.69167C5.32808 5.43081 5.71936 5.28408 5.99651 5.10475C6.07802 5.05583 6.20846 5.10475 6.32258 5.10475C22.1693 5.10475 37.9999 5.10475 53.8467 5.10475C55.7378 5.10475 57.2051 5.871 58.0365 7.61545C58.5909 8.80559 58.3463 10.0772 58.1018 11.2673C57.8409 12.5717 57.2867 13.827 56.8301 15.1801C51.9881 15.1801 47.1949 15.1801 42.467 15.1801Z" fill="#F39C11"/>
<path d="M90.6062 18.3665L89.8899 20.036H87.0306L84.4856 26.0553H82.8137L85.3588 20.036H82.4805L83.1968 18.3665H90.6062Z" fill="black"/>
<path d="M96.6821 18.3665C97.8346 18.3665 98.1311 19.0401 97.5713 20.3876L97.1254 21.442C96.8423 22.1157 96.5291 22.5843 96.1856 22.848C95.8486 23.1116 95.3888 23.2433 94.8061 23.2433L94.7366 23.2543L95.4061 26.0553H93.6298L93.0132 23.3752H90.5339L89.4025 26.0553H87.7307L90.9825 18.3665H96.6821ZM95.8205 20.5742C95.9439 20.2813 95.9771 20.0763 95.92 19.9591C95.8712 19.8347 95.7202 19.7725 95.4669 19.7725H92.0566L91.1103 22.0131H94.587C94.834 22.0131 95.0188 21.9619 95.1414 21.8593C95.2704 21.7569 95.3988 21.5628 95.5264 21.2772L95.8205 20.5742Z" fill="black"/>
<path d="M102.388 26.0553L102.377 24.6165H98.3588L97.1348 26.0553H95.2064L102.011 18.3665H103.882L104.183 26.0553H102.388ZM99.5982 23.1556H102.372L102.35 19.9262L99.5982 23.1556Z" fill="black"/>
<path d="M113.88 18.3665H115.494L112.242 26.0553H110.894L108.32 20.6291L106.03 26.0553H104.415L107.667 18.3665H109.082L111.62 23.7157L113.88 18.3665Z" fill="black"/>
<path d="M113.666 24.3198L113.923 23.6828H115.548L115.43 23.9793C115.343 24.2063 115.322 24.3675 115.366 24.4627C115.411 24.5505 115.536 24.5945 115.739 24.5945H119.111C119.307 24.5945 119.459 24.5505 119.564 24.4627C119.67 24.3748 119.771 24.2137 119.866 23.9793L120.006 23.6388C120.1 23.4045 120.133 23.2433 120.107 23.1556C120.087 23.0677 119.989 23.0163 119.816 23.0018L115.938 22.6942C115.456 22.6502 115.147 22.4928 115.011 22.2219C114.881 21.9509 114.932 21.5372 115.164 20.9807L115.611 19.9262C115.848 19.355 116.118 18.9522 116.421 18.7179C116.731 18.4836 117.13 18.3665 117.618 18.3665H122.282C123.258 18.3665 123.51 18.9449 123.039 20.1019L122.837 20.6072H121.212L121.276 20.4425C121.362 20.2155 121.379 20.058 121.327 19.9701C121.283 19.8749 121.163 19.8273 120.967 19.8273H117.822C117.626 19.8273 117.474 19.8749 117.366 19.9701C117.26 20.058 117.16 20.2155 117.068 20.4425L117.01 20.5852C116.923 20.8122 116.89 20.9697 116.911 21.0576C116.94 21.1381 117.038 21.1857 117.206 21.2003L121.083 21.5079C121.566 21.5518 121.87 21.7129 121.998 21.9912C122.133 22.2621 122.084 22.6796 121.85 23.2433L121.322 24.4956C121.086 25.0668 120.812 25.4695 120.502 25.7038C120.199 25.9381 119.803 26.0553 119.316 26.0553H114.423C113.448 26.0553 113.196 25.4768 113.666 24.3198Z" fill="black"/>
<path d="M121.369 26.0553L124.621 18.3665H130.32C131.472 18.3665 131.769 19.0401 131.209 20.3876L130.603 21.8265C130.318 22.5075 130.003 22.9798 129.66 23.2433C129.317 23.507 128.853 23.6388 128.271 23.6388H124.063L123.041 26.0553H121.369ZM124.661 22.2329H128.138C128.384 22.2329 128.569 22.1816 128.692 22.0791C128.814 21.9766 128.94 21.7825 129.068 21.4969L129.431 20.6401C129.554 20.3472 129.588 20.1422 129.531 20.025C129.476 19.9006 129.321 19.8383 129.068 19.8383H125.658L124.661 22.2329Z" fill="black"/>
<path d="M131.183 26.0553C130.557 26.0553 130.154 25.8649 129.979 25.4841C129.811 25.096 129.882 24.5396 130.191 23.8146L131.648 20.3876C131.96 19.6552 132.312 19.1353 132.706 18.8278C133.104 18.5202 133.618 18.3665 134.244 18.3665H138.481C139.109 18.3665 139.506 18.5605 139.673 18.9486C139.849 19.3293 139.782 19.8822 139.473 20.6072L138.017 24.0342C137.706 24.7666 137.35 25.2865 136.95 25.594C136.557 25.9016 136.047 26.0553 135.42 26.0553H131.183ZM132.413 24.4517H135.416C135.7 24.4517 135.923 24.3895 136.083 24.2649C136.252 24.1331 136.406 23.9025 136.546 23.5729L137.671 20.9148C137.81 20.5852 137.846 20.3472 137.778 20.2008C137.712 20.047 137.536 19.9701 137.251 19.9701H134.249C133.964 19.9701 133.738 20.036 133.569 20.1678C133.409 20.2923 133.259 20.5193 133.119 20.8489L131.994 23.507C131.854 23.8366 131.818 24.0782 131.884 24.232C131.952 24.3785 132.129 24.4517 132.413 24.4517Z" fill="black"/>
<path d="M146.81 18.3665C147.962 18.3665 148.259 19.0401 147.699 20.3876L147.253 21.442C146.97 22.1157 146.657 22.5843 146.313 22.848C145.977 23.1116 145.517 23.2433 144.934 23.2433L144.864 23.2543L145.534 26.0553H143.758L143.141 23.3752H140.662L139.53 26.0553H137.859L141.11 18.3665H146.81ZM145.949 20.5742C146.072 20.2813 146.104 20.0763 146.048 19.9591C145.999 19.8347 145.848 19.7725 145.594 19.7725H142.184L141.238 22.0131H144.714C144.962 22.0131 145.147 21.9619 145.269 21.8593C145.398 21.7569 145.527 21.5628 145.654 21.2772L145.949 20.5742Z" fill="black"/>
<path d="M156.25 18.3665L155.533 20.036H152.674L150.129 26.0553H148.458L151.002 20.036H148.124L148.84 18.3665H156.25Z" fill="black"/>
<path d="M158.307 26.0553L158.296 24.6165H154.278L153.053 26.0553H151.126L157.93 18.3665H159.801L160.102 26.0553H158.307ZM155.518 23.1556H158.291L158.269 19.9262L155.518 23.1556Z" fill="black"/>
<path d="M168.908 18.3665L168.192 20.036H165.332L162.788 26.0553H161.116L163.661 20.036H160.782L161.499 18.3665H168.908Z" fill="black"/>
<path d="M169.332 18.3665H171.023L167.771 26.0553H166.08L169.332 18.3665Z" fill="black"/>
<path d="M170.448 26.0553C169.821 26.0553 169.42 25.8649 169.243 25.4841C169.076 25.096 169.147 24.5396 169.457 23.8146L170.913 20.3876C171.224 19.6552 171.577 19.1353 171.97 18.8278C172.37 18.5202 172.883 18.3665 173.51 18.3665H177.747C178.373 18.3665 178.771 18.5605 178.939 18.9486C179.114 19.3293 179.048 19.8822 178.738 20.6072L177.282 24.0342C176.97 24.7666 176.614 25.2865 176.216 25.594C175.822 25.9016 175.311 26.0553 174.684 26.0553H170.448ZM171.679 24.4517H174.68C174.966 24.4517 175.188 24.3895 175.348 24.2649C175.517 24.1331 175.671 23.9025 175.81 23.5729L176.936 20.9148C177.076 20.5852 177.111 20.3472 177.042 20.2008C176.977 20.047 176.801 19.9701 176.516 19.9701H173.514C173.229 19.9701 173.002 20.036 172.834 20.1678C172.673 20.2923 172.523 20.5193 172.384 20.8489L171.259 23.507C171.119 23.8366 171.082 24.0782 171.149 24.232C171.217 24.3785 171.393 24.4517 171.679 24.4517Z" fill="black"/>
<path d="M186.588 18.3665H188.202L184.951 26.0553H183.602L181.029 20.6291L178.739 26.0553H177.123L180.376 18.3665H181.791L184.328 23.7157L186.588 18.3665Z" fill="black"/>
</svg>
